<svg width="268" height="268" viewBox="0 0 268 268" fill="none" xmlns="http://www.w3.org/2000/svg">
<path d="M253.453 121.126C248.884 161.549 246.92 206.342 206.143 212.953C205.711 213.025 205.267 213.09 204.818 213.154C197.289 214.199 188.472 213.981 178.116 212.244C177.676 212.166 177.222 212.113 176.777 212.082L95.2471 206.357C94.9777 206.339 94.7077 206.326 94.4361 206.329C23.5257 206.599 18.6253 177.215 15.1078 140.153C13.735 125.729 14.1179 111.491 14.6529 100.392C15.471 83.5396 18.2996 60.9946 29.8075 48.8568C35.8605 42.4683 44.3579 39.0138 52.9097 37.6133C61.4557 36.2121 70.1683 36.6958 78.802 37.1446C125.116 39.5396 171.653 40.8251 217.312 48.9179C230.105 51.189 244.651 55.4646 249.73 67.7419C253.15 76.0137 255.816 100.192 253.453 121.126Z" fill="#E4F1FF"/>
<path d="M122.319 221.815C109.021 220.903 75.0738 226.384 62.2671 224.516C49.4599 222.648 24.2497 226.215 25.5479 234.2C26.8461 242.184 62.4392 239.109 73.506 241.221C84.5728 243.333 96.9324 246.558 107.68 245.483C118.428 244.407 145.395 244.298 157.438 245.696C169.48 247.094 190.818 246.985 202.719 245.696C214.62 244.407 217.709 240.453 229.868 238.131C242.027 235.809 251.163 230.42 245.789 224.517C240.415 218.613 200.746 220.844 187.8 221.878C174.854 222.912 137.273 222.84 122.319 221.815Z" fill="#F0F0F0"/>
<path d="M142.481 231.765C142.525 230.231 143.424 227.698 143.564 225.368C143.792 221.573 144.594 219.575 144.594 219.575C144.594 219.575 147.061 220.828 150.061 221.003C153.063 221.176 153.838 220.227 153.838 220.227C153.838 220.227 154.334 222.673 155.055 224.952C155.88 227.552 157.275 229.935 158.083 231.869C158.605 233.116 158.361 236.035 157.165 237.306C156.438 238.08 155.244 238.658 153.313 238.784C148.92 239.072 145.16 237.994 143.449 235.92C142.531 234.804 142.444 233.042 142.481 231.765Z" fill="#AC906E"/>
<path d="M157.793 234.72C157.793 234.72 157.879 236.492 153.858 236.874C147.611 237.47 143.074 234.24 142.925 232.665" stroke="#866831" stroke-width="0.536" stroke-miterlimit="10"/>
<path d="M152.996 223.905C152.996 223.905 149.483 222.995 146.664 223.811" stroke="#866831" stroke-width="0.536" stroke-miterlimit="10"/>
<path d="M153.142 227.397C153.142 227.397 149.658 226.508 146.793 227.329" stroke="#866831" stroke-width="0.536" stroke-miterlimit="10"/>
<path d="M135.435 235.111C135.552 233.581 135.027 230.959 135.157 228.627C135.362 224.832 134.846 222.748 134.846 222.748C134.846 222.748 132.817 223.575 129.517 223.537C126.216 223.5 125.553 222.469 125.553 222.469C125.553 222.469 124.792 224.891 123.819 227.141C122.705 229.708 121.025 232.025 120.058 233.911C119.437 235.129 119.615 238.025 120.831 239.34C121.572 240.139 122.801 240.766 124.778 241.017C129.275 241.582 132.544 240.981 134.196 239.119C135.083 238.121 135.335 236.381 135.435 235.111Z" fill="#AC906E"/>
<path d="M120.246 236.759C120.246 236.759 120.122 238.489 124.306 239.103C130.808 240.051 134.672 237.495 134.958 235.948" stroke="#866831" stroke-width="0.536" stroke-miterlimit="10"/>
<path d="M126.111 226.227C126.111 226.227 129.977 225.525 132.497 226.681" stroke="#866831" stroke-width="0.536" stroke-miterlimit="10"/>
<path d="M125.671 229.716C125.671 229.716 129.534 229.015 132.056 230.169" stroke="#866831" stroke-width="0.536" stroke-miterlimit="10"/>
<path d="M167.825 133.829C169.58 141.901 165.594 144.598 165.762 152.652C165.924 160.41 163.812 168.499 163.007 176.352C162.673 179.617 162.927 185.467 162.411 188.75C161.57 194.098 159.868 196.882 159.049 202.18C158.104 208.293 156.525 214.375 155.144 220.442C155.144 220.442 153.968 222.005 150.322 222.298C147.652 222.513 143.456 220.776 143.456 220.776C143.044 212.667 142.928 204.441 142.899 196.443C142.885 192.48 143.503 188.172 143.957 184.094C144.246 181.506 144.468 179.011 144.421 176.756C144.231 167.591 140.639 156.278 139.278 146.169C138.531 140.612 138.354 134.81 138.675 129.134C145.798 128.739 160.09 130.219 167.825 133.829Z" fill="#2A354F"/>
<path d="M142.654 215.519C142.654 215.519 141.867 220.081 143.594 220.915C145.32 221.749 150.803 223.031 153.489 222.173C156.175 221.314 156.628 220.041 156.628 220.041C156.628 220.041 157.468 214.423 157.436 213.542C157.404 212.662 153.03 213.452 149.653 213.392C146.275 213.333 143.451 211.87 143.029 212.712C142.607 213.553 142.735 213.724 142.654 215.519Z" fill="#475C77"/>
<path d="M117.029 129.703C117.029 129.703 114.68 138.97 115.998 151.363C116.419 155.321 116.753 158.943 117.038 162.233C117.319 165.471 117.842 167.075 118.06 169.67C118.315 172.693 118.262 176.593 118.535 178.751C118.863 181.344 118.706 185.807 120.072 190.224C121.928 196.229 121.25 199.686 121.518 203.439C122.054 210.943 123.368 222.702 123.368 222.702C123.368 222.702 124.545 224.271 128.545 224.371C131.474 224.444 135.047 222.963 135.047 222.963C135.047 222.963 137.499 203.728 137.869 198.172C138.062 195.272 138.166 190.282 138.221 186.173C138.272 182.409 138.282 179.385 138.282 179.385C138.282 179.385 140.633 152.677 140.646 145.407C140.661 138.137 139.657 128.322 139.657 128.322L117.029 129.703Z" fill="#2A354F"/>
<path d="M137.273 129.99C137.273 129.99 136.666 135.985 136.666 138.166C136.666 140.346 137.07 142.526 137.878 143.252C138.688 143.979 141.111 144.525 141.111 144.525" stroke="#455977" stroke-width="0.536" stroke-miterlimit="10"/>
<path d="M139.899 129.808C139.899 129.808 139.331 148.919 140.617 154.006" stroke="#455977" stroke-width="0.536" stroke-miterlimit="10"/>
<path d="M151.581 172.248C151.581 172.248 153.386 176.116 155.964 178.694C158.543 181.273 161.379 180.241 161.379 180.241" stroke="#455977" stroke-width="0.536" stroke-miterlimit="10"/>
<path d="M151.323 178.952C151.323 178.952 154.675 182.562 159.574 182.304" stroke="#455977" stroke-width="0.536" stroke-miterlimit="10"/>
<path d="M121.413 169.154C121.413 169.154 128.89 165.544 130.953 160.388" stroke="#455977" stroke-width="0.536" stroke-miterlimit="10"/>
<path d="M125.023 206.284C125.023 206.284 128.375 211.441 131.469 211.956" stroke="#455977" stroke-width="0.536" stroke-miterlimit="10"/>
<path d="M119.092 165.286C119.092 165.286 122.959 165.802 126.054 163.482" stroke="#455977" stroke-width="0.536" stroke-miterlimit="10"/>
<path d="M136.367 218.259C136.367 218.259 136.659 222.863 135.022 223.508C133.385 224.153 128.142 225.058 125.402 224.1C122.662 223.142 122.32 221.815 122.32 221.815C122.32 221.815 121.992 216.022 122.115 215.125C122.238 214.228 126.596 215.325 129.809 215.453C133.021 215.583 135.952 214.553 136.281 215.436C136.609 216.319 136.464 216.473 136.367 218.259Z" fill="#475C77"/>
<path d="M116.084 131.422C116.084 131.422 125.562 132.956 133.274 133.657C138.946 134.173 144.15 133.226 150.807 131.594C156.948 130.089 164.043 130.391 164.043 130.391C163.883 127.967 163.508 122.277 163.525 120.212C163.693 98.2364 167.489 75.0276 164.642 67.1913C163.577 64.2557 150.253 60.0598 140.139 60.0598C130.024 60.0598 116.702 64.2557 115.635 67.1913C112.788 75.0276 116.584 98.2359 116.751 120.212C116.768 122.277 116.243 128.999 116.084 131.422Z" fill="#B6AE66"/>
<path d="M151.297 62.0672C150.375 58.9048 142.791 59.2403 140.138 59.4574C137.484 59.2398 129.9 58.9042 128.978 62.0672C127.922 65.6857 130.974 69.6044 140.138 69.6044C149.302 69.6044 152.353 65.6862 151.297 62.0672Z" fill="#3B8172"/>
<path d="M147.794 59.846C148.378 62.6321 146.045 86.9922 140.137 86.9922C134.229 86.9922 131.897 62.6316 132.481 59.846" stroke="#FFD400" stroke-width="0.536" stroke-miterlimit="10" stroke-linecap="round" stroke-linejoin="round"/>
<path d="M140.111 91.2111L140.503 87.0748L138.02 93.2886L141.063 92.4927L140.671 96.6295L143.157 90.4151L140.111 91.2111Z" fill="#FFD400"/>
<path d="M147.815 61.0906L145.872 53.012C145.872 53.012 142.574 53.9988 140.14 53.9988C137.702 53.9988 134.402 53.012 134.402 53.012L132.46 61.09C132.46 61.09 129.773 67.187 140.139 67.187C150.507 67.1865 147.815 61.0906 147.815 61.0906Z" fill="#A96845"/>
<path d="M151.805 44.2639C151.805 51.9314 147.444 58.1479 140.139 58.1479C132.832 58.1479 128.47 51.9314 128.47 44.2639C128.47 36.5932 131.514 30.3778 140.139 30.3778C148.763 30.3778 151.805 36.5932 151.805 44.2639Z" fill="#A96845"/>
<path d="M138.082 44.1208C137.387 43.6063 136.479 43.4964 135.641 43.4471C134.39 43.3731 133.538 43.7649 132.54 44.4387C132.394 44.5378 132.519 44.7362 132.676 44.6702C133.457 44.3395 134.526 44.3776 135.362 44.3513C136.099 44.3288 137.055 44.3819 137.718 44.7426C138.136 44.9699 138.448 44.3915 138.082 44.1208Z" fill="#4E3835"/>
<path d="M142.556 44.7426C143.158 44.4151 143.966 44.3819 144.633 44.3529C145.52 44.3149 146.772 44.3197 147.598 44.6697C147.755 44.7356 147.88 44.5373 147.733 44.4381C146.714 43.7494 145.899 43.4181 144.633 43.4465C143.807 43.4653 142.872 43.6175 142.192 44.1203C141.827 44.3915 142.139 44.9698 142.556 44.7426Z" fill="#4E3835"/>
<path d="M125.409 43.9252C124.752 46.423 126.592 49.609 129.039 50.0817C131.492 50.5577 131.055 46.8673 130.053 44.9168C129.051 42.9695 126.061 41.4285 125.409 43.9252Z" fill="#A96845"/>
<path d="M153.19 42.6699C150.74 43.1453 148.908 46.3286 149.558 48.828C150.212 51.3246 153.202 49.7842 154.203 47.8342C155.204 45.8853 155.64 42.195 153.19 42.6699Z" fill="#A96845"/>
<path d="M140.179 45.4522C140.179 45.4522 140.342 45.9084 140.428 46.6111C140.472 46.9638 140.501 47.3754 140.475 47.8358C140.455 48.0685 140.432 48.3097 140.347 48.5873C140.262 48.8038 140.174 49.0236 140.087 49.2439C140.025 49.4229 139.981 49.5714 139.957 49.736C139.932 49.901 139.921 50.1074 139.905 50.3095C139.9 50.28 139.899 50.4381 139.897 50.3968C139.89 50.3883 139.891 50.4183 139.892 50.4344C139.891 50.473 139.899 50.5201 139.921 50.571C139.958 50.6772 140.042 50.7962 140.136 50.9071C140.328 51.1301 140.549 51.3214 140.704 51.4603C140.867 51.6039 140.959 51.6854 140.959 51.6854C140.959 51.6854 140.833 51.7283 140.612 51.7379C140.39 51.7492 140.071 51.7417 139.686 51.5937C139.496 51.516 139.285 51.4008 139.087 51.1923C138.991 51.0872 138.899 50.9564 138.832 50.7999C138.8 50.719 138.773 50.6477 138.753 50.5351C138.731 50.3904 138.731 50.4413 138.724 50.3057C138.714 50.0811 138.702 49.8442 138.74 49.5639C138.778 49.2836 138.873 48.9941 138.996 48.7561C139.056 48.6377 139.124 48.5139 139.185 48.427L139.336 48.1923C139.408 48.0481 139.478 47.8562 139.537 47.6686C139.656 47.2859 139.753 46.901 139.845 46.5714C139.936 46.2407 140.016 45.9598 140.076 45.7631C140.142 45.5653 140.179 45.4522 140.179 45.4522Z" fill="#8B3B31"/>
<path d="M136.774 47.5598C136.771 48.2855 136.181 48.8741 135.455 48.8741C134.726 48.8708 134.138 48.2807 134.138 47.555C134.14 46.8276 134.733 46.2375 135.46 46.2412C136.187 46.2407 136.774 46.8314 136.774 47.5598Z" fill="#331831"/>
<path d="M143.501 47.577C143.498 48.3343 144.087 48.9497 144.814 48.9497C145.545 48.9523 146.136 48.3402 146.136 47.5845C146.138 46.8239 145.549 46.208 144.819 46.2059C144.092 46.2053 143.501 46.8185 143.501 47.577Z" fill="#331831"/>
<path d="M152.928 37.9332C153.088 36.8076 151.16 34.5575 151.16 34.5575C151.16 34.5575 150.838 31.5034 149.552 30.5386C148.267 29.5743 146.585 28.3217 144.774 27.6619C142.962 27.0021 140.781 28.3228 139.426 27.6453C137.818 26.8413 135.568 26.681 134.764 27.4845C133.96 28.2885 133.469 29.5545 132.835 29.8954C132.202 30.2368 130.745 30.6994 129.781 31.342C128.817 31.9847 128.606 33.5729 128.334 34.8786C128.063 36.1843 126.757 36.1044 126.757 37.9129C126.757 38.6842 127.37 40.826 127.691 41.9511C128.013 43.0767 127.753 45.6243 128.444 45.97C129.65 46.573 130.464 42.2732 131.066 40.826C131.669 39.3794 134.764 42.1119 136.693 40.6652C138.622 39.2186 140.711 40.9868 142.64 40.1828C144.569 39.3794 144.409 36.6463 145.695 36.3252C146.98 36.0031 146.338 36.486 147.784 37.2895C149.231 38.093 147.945 40.6652 148.909 42.1119C149.874 43.5586 149.836 47.1905 150.999 45.9695C151.663 45.2716 151.953 42.9288 152.124 41.1471C152.252 39.813 152.767 39.0583 152.928 37.9332Z" fill="#4E3835"/>
<path d="M137.657 53.8465C137.657 53.8465 143.122 54.9716 144.409 51.7572" stroke="#8B3B31" stroke-width="0.615864" stroke-miterlimit="10"/>
<path d="M133.945 56.8814C135.725 57.9721 137.155 58.8297 140.139 58.8297C143.122 58.8297 144.552 57.9721 146.33 56.883" stroke="#8B3B31" stroke-width="0.615864" stroke-miterlimit="10"/>
<path d="M118.653 64.0386C118.653 64.0386 114.184 64.3827 114.011 73.149C113.839 81.9158 115.73 104.435 115.215 110.966C114.699 117.499 115.73 130.391 115.043 132.969C114.356 135.548 118.309 138.47 117.966 141.048C117.621 143.627 118.653 144.658 119.684 145.002C120.715 145.346 128.623 142.423 128.795 139.501C128.966 136.579 132.576 112.857 133.436 107.184C134.296 101.512 131.029 79.8527 128.967 75.0394C126.904 70.2267 125.013 64.7257 123.122 64.3821C121.231 64.0386 118.653 64.0386 118.653 64.0386Z" fill="#483966"/>
<path d="M130.686 60.4286C130.686 60.4286 129.998 58.194 127.592 59.7409C125.185 61.2878 125.873 61.2878 121.576 62.1476C117.278 63.0068 117.45 64.5542 117.45 64.5542C117.45 64.5542 120.888 64.7257 123.467 68.5077C126.045 72.2898 128.107 76.931 128.967 81.9158C129.827 86.9011 130.857 95.6679 131.029 100.481C131.202 105.294 128.967 125.749 127.936 129.359C126.904 132.969 128.107 140.876 128.107 140.876C128.107 140.876 131.202 136.063 132.061 130.563C132.92 125.062 136.014 116.295 135.842 109.075C135.671 101.856 131.029 78.1338 129.826 74.0082C128.623 69.8831 130.686 60.4286 130.686 60.4286Z" fill="#664A86"/>
<path d="M161.623 64.0386C161.623 64.0386 166.093 64.3827 166.265 73.149C166.436 81.9158 164.546 104.435 165.061 110.966C165.577 117.499 164.546 130.391 165.233 132.969C165.921 135.548 160.605 136.751 160.95 139.329C161.293 141.908 159.059 142.252 158.027 142.595C156.996 142.939 151.653 142.424 151.481 139.501C151.31 136.579 147.699 112.857 146.84 107.185C145.981 101.512 149.247 79.8533 151.31 75.04C153.372 70.2272 155.263 64.7263 157.154 64.3827C159.045 64.0386 161.623 64.0386 161.623 64.0386Z" fill="#483966"/>
<path d="M149.59 60.4286C149.59 60.4286 150.278 58.194 152.684 59.7409C155.091 61.2878 154.403 61.2878 158.7 62.1476C162.998 63.0068 162.826 64.5542 162.826 64.5542C162.826 64.5542 159.388 64.7257 156.809 68.5077C154.23 72.2898 152.168 76.931 151.308 81.9158C150.449 86.9011 149.418 95.6679 149.245 100.481C149.073 105.294 151.308 125.749 152.34 129.359C153.371 132.969 152.168 140.876 152.168 140.876C152.168 140.876 149.074 136.063 148.215 130.563C147.355 125.062 144.261 116.295 144.433 109.075C144.605 101.856 149.245 78.1338 150.449 74.0082C151.653 69.8831 149.59 60.4286 149.59 60.4286Z" fill="#664A86"/>
<path d="M116.943 65.4134C114.881 66.4447 108.177 73.149 106.801 87.5883C105.426 102.028 102.676 109.419 105.426 113.717C108.177 118.014 114.537 119.046 116.943 118.014C119.35 116.983 125.452 105.122 126.57 102.715C127.687 100.309 128.834 96.51 129.148 94.4646C129.492 92.23 131.211 90.5968 131.211 88.7916C131.211 86.9863 126.398 81.9152 126.398 81.9152C126.398 81.9152 124.335 80.5404 123.475 82.6029C122.616 84.666 123.475 75.8992 122.1 71.9451C120.725 67.9926 119.006 64.3827 116.943 65.4134Z" fill="#483966"/>
<path d="M122.1 71.9456C122.1 71.9456 123.132 80.7125 122.788 82.4314" stroke="#70528D" stroke-width="0.536" stroke-miterlimit="10"/>
<path d="M111.099 96.3556C111.099 96.3556 116.943 91.0267 118.834 89.6513C119.78 88.9636 120.575 87.4168 121.241 85.9347C121.907 84.4521 122.444 83.0339 122.874 82.6035C123.733 81.7437 124.506 81.2286 125.882 81.9158" stroke="#70528D" stroke-width="0.536" stroke-miterlimit="10"/>
<path d="M121.756 87.2447C121.756 87.2447 123.389 92.3152 129.492 92.3152" stroke="#70528D" stroke-width="0.536" stroke-miterlimit="10"/>
<path d="M110.239 93.2613C110.239 93.2613 113.849 90.167 116.943 91.0267" stroke="#70528D" stroke-width="0.536" stroke-miterlimit="10"/>
<path d="M117.115 118.014C117.115 118.014 122.788 113.373 125.195 106.153C127.601 98.9338 129.664 93.2613 129.664 93.2613" stroke="#70528D" stroke-width="0.536" stroke-miterlimit="10"/>
<path d="M164.641 67.1913C164.641 67.1913 168.341 67.5628 174.53 84.5802C180.718 101.598 179.17 109.849 177.623 113.717C176.648 116.155 174.933 126.121 173.498 130.391C172.657 132.893 171.187 133.505 171.092 134.173C170.834 135.977 169.716 138.298 169.373 138.814C169.029 139.329 167.052 140.533 164.989 139.244C162.927 137.955 160.348 136.923 160.348 136.923C160.348 136.923 160.942 68.8829 164.641 67.1913Z" fill="#483966"/>
<path d="M166.106 78.1343C166.106 78.1343 165.247 85.5257 165.418 89.4793C165.59 93.4328 165.418 104.434 165.934 108.904C166.449 113.373 165.934 122.828 165.934 127.297C165.934 131.766 163.355 132.454 163.184 134.345C163.012 136.235 162.668 138.126 162.668 138.126" stroke="#70528D" stroke-width="0.536" stroke-miterlimit="10"/>
<path d="M163.356 75.7277C163.356 75.7277 165.247 82.0878 165.419 89.3072" stroke="#70528D" stroke-width="0.536" stroke-miterlimit="10"/>
<path d="M168.685 96.183C168.685 96.183 165.59 102.028 165.59 105.81" stroke="#70528D" stroke-width="0.536" stroke-miterlimit="10"/>
<path d="M165.934 130.735C165.934 130.735 169.372 131.079 170.403 133.485" stroke="#70528D" stroke-width="0.536" stroke-miterlimit="10"/>
<path d="M146.166 84.3465C146.166 84.778 145.817 85.1275 145.385 85.1275H135.285C134.854 85.1275 134.504 84.778 134.504 84.3465V66.6703C134.504 66.2388 134.854 65.8894 135.285 65.8894H145.385C145.817 65.8894 146.166 66.2388 146.166 66.6703V84.3465Z" fill="#292929"/>
<path d="M125.823 82.5627C125.823 82.5627 127.267 78.7459 127.679 77.4048C128.092 76.0643 131.081 73.6003 132.157 72.6537C133.44 71.5227 135.372 70.537 137.787 70.2883C140.3 70.0294 141.191 70.804 140.985 71.6289C140.778 72.4543 139.009 72.4886 137.772 72.9013C136.534 73.3146 135.14 74.8952 135.14 74.8952C135.14 74.8952 137.238 74.0451 139.048 73.6196C140.802 73.2068 142.074 73.8683 142.797 74.177C143.519 74.4868 143.563 75.4452 142.944 75.8574C142.944 75.8574 143.769 76.7857 143.46 77.5077C143.15 78.2297 142.634 78.3326 141.809 78.7453C141.809 78.7453 142.841 79.261 142.531 80.1898C142.222 81.1182 140.572 80.9118 139.85 81.1182C139.128 81.3246 137.478 81.428 136.962 82.5627C136.446 83.6969 135.106 85.3472 133.455 86.2756C131.804 87.2034 129.845 87.7196 129.536 87.7196C129.226 87.7196 126.029 84.6253 125.823 82.5627Z" fill="#A96845"/>
<path d="M134.581 77.3689C134.581 77.3689 139.527 75.614 140.563 75.614C141.601 75.614 142.944 75.8584 142.944 75.8584" stroke="#8B3B31" stroke-width="0.615864" stroke-miterlimit="10"/>
<path d="M135.538 80.0811C135.538 80.0811 138.49 78.4854 139.527 78.4854C140.563 78.4854 141.907 78.7298 141.907 78.7298" stroke="#8B3B31" stroke-width="0.615864" stroke-miterlimit="10"/>
<path d="M133.863 75.3744L135.14 74.8952" stroke="#8B3B31" stroke-width="0.615864" stroke-miterlimit="10"/>
<path d="M163.356 135.032C163.356 135.032 169.2 135.72 169.029 138.47C168.857 141.221 167.825 142.767 166.623 142.939C165.419 143.111 162.154 141.736 160.95 140.705C159.746 139.674 162.497 135.72 163.356 135.032Z" fill="#A96845"/>
<path d="M209.422 218.809C208.295 217.919 204.874 218.528 203.754 221.221C202.633 223.914 201.739 228 201.739 228C201.739 228 199.653 230.984 197.701 231.908C195.747 232.831 190.286 239.29 196.239 239.974C202.19 240.654 206.284 236.881 207.449 233.5C208.613 230.12 208.953 228.869 210.322 227.227C211.689 225.577 211.712 220.611 209.422 218.809Z" fill="#B9346F"/>
<path d="M211.156 224.425C211.156 224.425 210.835 227.77 210.357 229.805C209.877 231.845 210.365 233.675 209.934 234.228C209.502 234.785 208.358 234.874 208.311 234.372C208.265 233.873 208.612 229.246 208.896 227.289L211.156 224.425Z" fill="#B9346F"/>
<path d="M206.844 216.791C205.119 216.92 203.379 216.937 201.7 216.646C201.879 218.789 201.909 220.686 201.678 222.078C201.397 223.762 200.315 226.968 198.923 229.261C197.807 231.095 195.421 233.038 196.838 233.782C198.256 234.527 201.024 234.215 203.142 233.311C205.258 232.407 206.17 230.403 206.957 228.093C207.744 225.779 210 223.576 209.879 221.447C209.785 219.753 209.027 218.395 208.915 216.564C208.206 216.674 207.503 216.744 206.844 216.791Z" fill="#FFA98B"/>
<path d="M210.197 203.686C210.63 198.826 210.091 183.407 209.05 176.681C208.01 169.955 204.223 163.462 204.223 163.462C204.223 163.462 211.843 140.295 212.599 130.03C204.943 130.175 191.128 128.681 190.206 129.746C189.284 130.81 188.317 138.733 187.892 147.459C187.571 154.042 188.145 166.879 188.77 169.434C189.395 171.987 191.064 180.021 192.307 185.359C193.55 190.699 198.837 209.438 199.218 212.446C199.6 215.457 200.407 219.86 200.407 219.86C200.407 219.86 202.675 221.305 205.69 220.693C208.706 220.078 210.989 217.091 210.989 217.091C210.989 217.091 209.765 208.547 210.197 203.686Z" fill="#4B1568"/>
<path d="M210.695 204.333C210.388 198.809 210.09 183.407 209.051 176.682C208.01 169.956 204.223 163.463 204.223 163.463L212.599 130.03C212.599 130.03 210.427 134.673 209.354 136.103C208.281 137.534 206.85 141.648 205.598 142.005C204.346 142.363 203.452 141.29 201.306 140.216C199.532 139.329 197.371 139.322 197.371 139.322C197.371 139.322 200.591 141.469 201.485 142.363C202.379 143.257 202.2 144.33 202.379 145.761C202.557 147.191 201.771 151.721 201.557 153.371C200.357 162.681 200.17 171.36 200.17 171.36C200.17 171.36 206.445 176.256 206.658 186.046C206.804 192.773 208.726 209.64 209.243 218.851C210.324 217.956 210.989 217.091 210.989 217.091C210.989 217.091 211.002 209.857 210.695 204.333Z" fill="#3A104D"/>
<path d="M235.447 208.779C235.364 208.249 235.197 207.739 234.999 207.272C234.791 206.113 234.093 205.441 233.213 204.896C231.413 203.78 230.223 203.613 230.223 203.613L225.473 206.185C225.473 206.185 224.645 211.368 224.678 213.972C224.712 216.573 223.773 222.229 223.417 224.741C223.107 226.932 225.167 228.615 227.979 227.723C231.455 226.62 233.123 223.359 233.584 221.066C234.066 218.66 233.849 216.965 234.019 214.961C234.063 214.426 234.351 213.397 234.362 212.927C234.507 213.219 234.649 213.466 234.777 213.629C235.656 214.742 236.198 212.821 236.198 212.821C236.198 212.821 235.752 210.74 235.447 208.779Z" fill="#B9346F"/>
<path d="M231.113 203.276C231.113 203.276 233.603 206.24 233.227 208.865C232.854 211.489 231.854 213.187 231.888 215.808C231.923 218.429 229.297 220.707 227.253 220.548C225.21 220.385 224.392 220.363 224.561 217.554C224.729 214.744 224.888 211.219 224.654 208.976C224.422 206.732 223.565 203.562 223.565 203.562L231.113 203.276Z" fill="#FFA98B"/>
<path d="M227.865 177.506C225.709 171.307 221.816 166.089 221.816 166.089C221.816 166.089 222.673 160.467 223.335 158.153C223.997 155.838 225.26 152.52 228.178 146.257C231.031 140.132 229.653 128.326 227.737 127.404C225.822 126.482 209.15 130.058 207.07 129.97C206.05 134.742 204.659 141.681 204.285 145.652C203.675 152.115 203.612 163.512 204.129 167.886C204.647 172.262 211.158 180.978 214.541 187.749C217.696 194.063 223.111 206.201 223.111 206.201C223.111 206.201 224.061 208.266 227.285 207.994C230.51 207.723 232.76 203.312 232.76 203.312C232.76 203.312 231.782 196.78 230.815 193.334C229.848 189.888 230.02 183.704 227.865 177.506Z" fill="#4B1568"/>
<path d="M223.849 103.709C225.423 93.9313 231.261 98.6063 229.56 86.7028C228.911 82.1591 226.834 79.1736 223.329 78.2646C216.785 76.5681 209.266 77.4858 202.861 78.5245C196.457 79.5633 190.053 80.2553 186.591 84.2367C183.129 88.2181 183.097 99.324 183.085 102.022C183.075 104.72 185.638 110.806 187.369 111.499C189.1 112.191 191.437 110.374 191.437 110.374C191.437 110.374 191.783 116.605 191.437 119.028C191.091 121.451 188.668 129.673 189.446 131.49C190.225 133.308 193.86 133.308 198.014 134.866C202.169 136.423 208.284 135.471 212.901 134.779C217.517 134.088 226.921 130.797 228.652 129.932C230.382 129.067 229.69 127.163 229.344 126.47C228.998 125.778 227.436 124.052 226.921 121.451C225.869 116.137 223.32 106.993 223.849 103.709Z" fill="#CA346F"/>
<path d="M218.655 86.1834C218.655 86.1834 218.786 90.338 219.564 92.9338" stroke="#8D2860" stroke-width="0.536" stroke-miterlimit="10"/>
<path d="M205.457 133.048C205.457 133.048 213.939 132.183 218.266 130.625C222.593 129.067 226.402 126.817 227.613 125.432" stroke="#8D2860" stroke-width="0.536" stroke-miterlimit="10"/>
<path d="M215.67 130.452C215.67 130.452 222.593 128.202 226.228 122.663" stroke="#8D2860" stroke-width="0.536" stroke-miterlimit="10"/>
<path d="M190.399 129.24C190.399 129.24 194.38 131.837 198.707 132.702" stroke="#8D2860" stroke-width="0.536" stroke-miterlimit="10"/>
<path d="M183.994 102.151C182.858 102.738 182.447 107.788 182.094 112.88C181.907 115.6 184.676 118.882 187.386 118.978C190.097 119.073 191.384 116.508 192.251 113.546C193.434 109.51 193.815 104.263 192.321 103.179C190.827 102.097 184.51 101.885 183.994 102.151Z" fill="#FFA98B"/>
<path d="M198.233 102.143C198.412 102.499 198.318 102.826 198.021 102.873L191.088 103.982C190.792 104.029 190.406 103.78 190.227 103.424L182.876 88.8511C182.697 88.4957 182.792 88.1693 183.088 88.1221L190.021 87.0132C190.317 86.966 190.702 87.2163 190.882 87.5717L198.233 102.143Z" fill="#292929"/>
<path d="M195.41 101.048C195.017 100.415 193.739 100.306 193.739 100.306C194.427 99.8723 195.561 99.2822 195.052 98.4037C194.551 97.5402 193.476 97.5788 193.476 97.5788C193.476 97.5788 193.91 97.121 193.439 96.5861C192.97 96.0501 192.149 96.2827 191.071 96.3942C189.991 96.5057 188.865 97.2261 188.424 97.4485C187.982 97.6715 187.238 98.3924 187.164 98.1121C187.425 97.791 187.63 97.1596 187.997 96.9222C189.04 96.2474 190.091 95.7596 190.07 95.2016C190.049 94.6426 189.741 93.9125 187.956 94.3129C186.171 94.7144 185.404 95.2515 184.972 95.7081C184.539 96.1648 184.233 98.1979 184.488 98.9927C184.742 99.7882 185.682 102.151 186.779 101.958C187.636 101.807 187.737 103.525 188.431 104.05C189.125 104.575 191.046 106.354 192.189 105.734C193.951 104.779 193.041 103.73 193.041 103.73C193.041 103.73 193.436 102.512 194.394 102.476C195.351 102.44 195.916 101.861 195.41 101.048Z" fill="#FFA98B"/>
<path d="M185.948 100.529C185.948 100.529 185.961 99.6826 187.12 98.4402" stroke="#C6715C" stroke-width="0.536" stroke-miterlimit="10"/>
<path d="M193.125 97.7423C193.125 97.7423 191.509 97.9079 190.067 98.7773C188.625 99.6472 187.611 102.181 187.611 102.181" stroke="#C6715C" stroke-width="0.536" stroke-miterlimit="10"/>
<path d="M189.097 104.106C189.097 104.106 189.563 102.191 191.005 101.321C192.447 100.451 194.006 100.42 194.006 100.42" stroke="#C6715C" stroke-width="0.536" stroke-miterlimit="10"/>
<path d="M183.785 110.028C183.785 110.028 184.423 105.919 186.434 102.407" stroke="#C6715C" stroke-width="0.536" stroke-miterlimit="10"/>
<path d="M192.873 104.175C192.759 106.524 190.988 105.94 190.378 105.891C189.768 105.842 189.237 104.964 188.289 104.373C187.551 103.912 187.141 102.623 186.514 102.315C185.888 102.007 185.329 100.955 185.43 100.214" stroke="#C6715C" stroke-width="0.536" stroke-miterlimit="10"/>
<path d="M209.308 99.0356C208.257 97.5214 206.173 94.9293 204.958 93.6831C203.743 92.4364 202.846 92.2853 201.164 91.6839C199.483 91.0825 197.631 90.7705 198.124 92.1443C198.616 93.517 200.704 93.8825 201.958 94.4593C203.211 95.036 203.543 96.1777 203.543 96.1777C203.543 96.1777 201.911 95.7682 200.584 95.6878C199.716 95.6363 198.711 96.2243 198.459 96.6746C197.82 97.8146 199.191 99.3996 199.191 99.3996C199.191 99.3996 199.001 100.229 199.257 100.749C199.513 101.268 200.634 101.668 200.634 101.668C200.634 101.668 199.737 102.256 200.418 103.163C201.019 103.965 202.562 104.079 202.562 104.079C202.562 104.079 204.989 106.31 206.62 106.23C208.251 106.15 209.554 105.979 210.216 104.748C211.127 103.06 210.903 101.332 209.308 99.0356Z" fill="#FFA98B"/>
<path d="M199.219 99.3358C199.219 99.3358 199.961 98.3485 200.777 98.0874C202.191 97.6356 204.638 98.8689 204.638 98.8689" stroke="#C6715C" stroke-width="0.536" stroke-miterlimit="10"/>
<path d="M200.635 101.668C200.635 101.668 202.349 99.8525 204.291 101.639" stroke="#C6715C" stroke-width="0.536" stroke-miterlimit="10"/>
<path d="M202.56 104.136C202.56 104.136 202.426 103.128 202.665 103.33C202.886 103.517 202.354 102.672 202.354 102.672" stroke="#C6715C" stroke-width="0.536" stroke-miterlimit="10"/>
<path d="M203.703 103.447L202.665 103.33" stroke="#C6715C" stroke-width="0.536" stroke-miterlimit="10"/>
<path d="M206.713 105.267C206.713 105.267 211.69 110.604 214.761 112.797C218.396 115.393 221.91 116.723 223.719 115.913C227.483 114.225 227.873 106.306 228.522 103.06C229.171 99.815 230.08 93.8434 229.301 92.0258C229.301 92.0258 227.224 90.9871 224.238 90.9871C221.253 90.9871 219.825 93.1938 219.825 93.1938L219.305 103.45C219.305 103.45 217.487 103.839 215.541 103.32C213.593 102.801 209.699 101.633 209.699 101.633L206.713 105.267Z" fill="#FFA98B"/>
<path d="M203.959 78.5583C199.134 79.1329 191.584 80.7034 192.234 83.445C192.883 86.1866 199.542 91.4175 204.054 91.5499C208.566 91.6833 216.939 83.4337 217.113 79.7868C217.287 76.1399 208.784 77.9842 203.959 78.5583Z" fill="#FFA98B"/>
<path d="M197.137 77.4756C194.887 78.4371 193.42 80.3426 191.633 78.7518C189.846 77.1615 191.287 75.2351 189.581 71.9526C188.178 69.2539 186.887 66.1729 186.508 63.8478C186.13 61.5231 186.365 57.0813 187.189 55.2557C190.435 48.0513 199.605 47.6375 199.605 47.6375C203.005 48.2528 201.671 71.653 201.671 71.653C201.671 71.653 199.387 76.514 197.137 77.4756Z" fill="#B54A1B"/>
<path d="M198.02 75.926L199.337 83.1497C199.337 83.1497 201.542 86.8368 204.878 85.6512C208.212 84.465 209.908 78.6741 209.908 78.6741L205.18 71.4118L198.02 75.926Z" fill="#FFA98B"/>
<path d="M198.366 49.0236C192.818 49.6679 189.33 54.1531 188.42 59.0066C187.54 63.6929 189.448 69.2201 190.847 71.5184C192.246 73.8174 196.09 78.3696 201.507 76.641C206.934 74.9113 209.649 68.5169 209.283 62.2751C208.916 56.035 204.171 48.3477 198.366 49.0236Z" fill="#FFA98B"/>
<path d="M194.834 65.2548C194.834 65.2548 195.018 65.7565 195.172 66.5128C195.249 66.8928 195.305 67.3414 195.362 67.8238C195.384 68.065 195.407 68.3148 195.422 68.5683L195.428 68.6637C195.429 68.6873 195.431 68.6782 195.43 68.7291V68.7763C195.428 68.8422 195.43 68.8937 195.421 68.9805C195.407 69.1461 195.39 69.2796 195.365 69.4109C195.319 69.6735 195.266 69.9062 195.261 70.0616C195.254 70.2246 195.269 70.2776 195.333 70.3853C195.364 70.4373 195.415 70.4925 195.479 70.5483L195.525 70.5912L195.537 70.6019L195.54 70.6046C195.507 70.5853 195.533 70.6014 195.527 70.5976L195.536 70.604L195.57 70.6292C195.615 70.663 195.661 70.6946 195.702 70.73C195.84 70.8399 195.98 70.9315 196.126 71.006C196.409 71.1631 196.689 71.222 196.905 71.2408C197.119 71.2521 197.259 71.2258 197.259 71.2258C197.259 71.2258 197.192 71.355 196.979 71.4943C196.874 71.5667 196.732 71.6299 196.555 71.6782C196.377 71.7339 196.169 71.7366 195.943 71.7253C195.718 71.7141 195.478 71.638 195.229 71.5479C195.177 71.5292 195.127 71.5051 195.075 71.4825L195.037 71.4654L195.027 71.4611L195 71.445L194.977 71.4316L194.883 71.3753C194.759 71.3035 194.632 71.2017 194.513 71.0714C194.26 70.8211 194.113 70.3768 194.133 70.0402C194.137 69.695 194.209 69.4323 194.257 69.1976L194.322 68.8787C194.332 68.8406 194.337 68.7661 194.343 68.7066L194.349 68.66C194.349 68.6793 194.35 68.6385 194.351 68.631L194.356 68.5394C194.366 68.2939 194.386 68.0527 194.404 67.8184C194.451 67.35 194.507 66.9121 194.569 66.5315C194.679 65.7666 194.834 65.2548 194.834 65.2548Z" fill="#D57961"/>
<path d="M200.967 65.6332C201.063 66.2238 200.661 66.7813 200.071 66.8762C199.482 66.9737 198.926 66.5728 198.829 65.9826C198.733 65.393 199.133 64.8367 199.723 64.7397C200.313 64.6443 200.87 65.0452 200.967 65.6332Z" fill="#520E03"/>
<path d="M193.466 67.2422C193.562 67.8329 193.162 68.3898 192.57 68.4852C191.983 68.5806 191.425 68.1808 191.33 67.5906C191.234 67.0016 191.634 66.4452 192.224 66.3482C192.813 66.2522 193.37 66.6537 193.466 67.2422Z" fill="#520E03"/>
<path d="M190.107 65.8487C190.257 65.6814 189.969 65.8535 190.148 65.8042C190.336 65.7527 190.503 65.5544 190.658 65.4445C191.367 64.9417 192.22 64.8967 193.046 65.0816C193.585 65.2022 193.811 64.3645 193.273 64.2578C192.313 64.0675 191.273 64.0884 190.443 64.6678C190.201 64.8367 189.974 65.0382 189.827 65.2955C189.785 65.3684 189.64 65.7275 189.778 65.4547C189.752 65.5072 189.728 65.5619 189.708 65.6166C189.623 65.8411 189.951 66.0207 190.107 65.8487Z" fill="#B54A1B"/>
<path d="M201.627 63.2019C200.227 62.4869 198.451 62.6332 197.233 63.6628C196.814 64.0171 197.424 64.6314 197.837 64.2669C198.781 63.4345 200.258 63.4565 201.443 63.6382C201.691 63.6762 201.887 63.3348 201.627 63.2019Z" fill="#B54A1B"/>
<path d="M196.375 73.9262C196.375 73.9262 199.486 74.1706 200.6 70.9063" stroke="#C6715C" stroke-width="0.536" stroke-miterlimit="10"/>
<path d="M205.909 73.4518C204.075 77.9113 198.534 77.4857 198.534 77.4857L198.88 80.9472" stroke="#C6715C" stroke-width="0.536" stroke-miterlimit="10"/>
<path d="M196.63 82.5059C196.63 82.5059 198.606 82.031 200.527 81.9833C201.525 81.9581 202.048 82.6721 202.572 82.9095" stroke="#C6715C" stroke-width="0.536" stroke-miterlimit="10"/>
<path d="M204.629 82.6088C204.629 82.6088 205.075 81.4061 206.205 81.0089C207.335 80.6112 210.423 80.1416 210.423 80.1416" stroke="#C6715C" stroke-width="0.536" stroke-miterlimit="10"/>
<path d="M206.471 71.5603C206.506 72.8225 204.731 75.9903 205.668 76.3896C206.606 76.7889 207.938 75.5754 209.354 74.2231C210.77 72.8703 212.576 70.4524 213.198 69.0743C214.117 67.038 215.298 65.2221 215.341 62.7795C215.384 60.337 213.12 57.0754 211.841 54.4538C210.966 52.6577 209.583 50.7988 207.153 49.0933C203.292 46.3833 193.304 47.3583 189.681 52.684C189.003 53.6777 188.864 55.0836 189.097 56.4451C189.484 58.7161 190.776 59.452 191.877 59.7088C192.978 59.9655 194.784 60.0711 196.341 60.248C197.899 60.4254 200.978 62.1449 202.532 62.1208C204.086 62.0967 206.424 69.8595 206.471 71.5603Z" fill="#B54A1B"/>
<path d="M95.035 230.433C93.5867 228.547 91.4052 226.317 89.7516 223.88C88.0316 221.344 86.2671 218.262 86.2671 218.262C86.2671 218.262 82.655 218.627 80.511 218.597C78.3659 218.571 74.4445 217.808 74.4445 217.808C74.4445 217.808 73.6861 223.886 73.8614 225.891C74.0366 227.896 74.638 229.886 76.4331 230.817C77.9752 231.62 80.5812 234.191 81.3059 235.134C82.7558 237.024 85.5966 238.933 91.6035 237.782C98.3448 236.494 97.0252 233.024 95.035 230.433Z" fill="#A26836"/>
<path d="M82.7777 224.959C82.7777 224.959 85.5681 222.944 89.0762 223.502" stroke="#5F4038" stroke-width="0.536" stroke-miterlimit="10" stroke-linecap="round" stroke-linejoin="round"/>
<path d="M84.7812 228.295C84.7812 228.295 87.5717 226.279 91.0809 226.835" stroke="#5F4038" stroke-width="0.536" stroke-miterlimit="10" stroke-linecap="round" stroke-linejoin="round"/>
<path d="M96.6365 234.209C94.5809 235.607 89.6872 236.898 87.2442 236.468C84.4017 235.971 81.4436 233.464 79.708 231.092C78.5647 229.529 75.711 227.467 73.8972 226.241" stroke="#5F4038" stroke-width="0.536" stroke-miterlimit="10"/>
<path d="M74.9946 177.486C74.9946 177.486 72.6137 165.558 71.3284 159.495C68.4083 145.728 66.4336 128.696 68.7781 126.773C74.5262 122.061 88.5667 123.696 90.6335 126.699C92.4891 129.391 94.5463 164.13 92.6939 177.083C93.1902 187.77 87.3548 218.429 87.3548 218.429C87.3548 218.429 84.4722 220.253 80.6687 220.145C76.8658 220.037 73.8358 219.001 73.8358 219.001C73.8358 219.001 72.186 190.106 72.6882 186.564C73.1921 183.02 74.9946 177.486 74.9946 177.486Z" fill="#4F4656"/>
<path d="M82.9567 154.391C86.0553 153.76 90.5518 152.327 93.257 151.424C92.8432 139.611 91.7048 128.254 90.6328 126.699C88.566 123.697 74.5254 122.062 68.7774 126.773C66.4329 128.697 68.4075 145.728 71.3277 159.496C71.8846 162.12 73.0037 167.938 73.6888 170.751C75.8885 160.303 78.6044 155.276 82.9567 154.391Z" fill="#433A4C"/>
<path d="M35.3417 207.758C35.3417 207.758 32.7078 213.307 32.2463 215.275C31.7826 217.249 31.7323 219.344 33.1516 220.828C34.3699 222.105 36.0492 225.419 36.4448 226.559C37.2343 228.842 39.3451 231.602 45.4367 232.493C52.2739 233.497 52.104 229.751 51.0191 226.619C50.2307 224.338 48.85 221.491 48.0384 218.618C47.1942 215.63 46.4776 212.106 46.4776 212.106C46.4776 212.106 42.9164 211.256 40.8807 210.519C38.8423 209.783 35.3417 207.758 35.3417 207.758Z" fill="#A26836"/>
<path d="M41.0442 217.339C41.0442 217.339 44.3401 216.341 47.5116 218.033" stroke="#5F4038" stroke-width="0.536" stroke-miterlimit="10" stroke-linecap="round" stroke-linejoin="round"/>
<path d="M41.9088 221.184C41.9088 221.184 45.2047 220.184 48.3778 221.878" stroke="#5F4038" stroke-width="0.536" stroke-miterlimit="10" stroke-linecap="round" stroke-linejoin="round"/>
<path d="M51.3611 230.752C48.9609 231.405 43.8866 231.015 41.6901 229.798C39.1339 228.384 37.0998 225.011 36.1902 222.173C35.5899 220.304 33.515 217.393 32.1686 215.625" stroke="#5F4038" stroke-width="0.536" stroke-miterlimit="10"/>
<path d="M65.2338 182.28C61.3473 189.587 47.027 213.933 47.027 213.933C47.027 213.933 41.0828 213.257 39.2502 212.45C36.2668 211.136 33.5852 209.233 33.7546 207.946C34.0247 205.865 39.6511 176.923 47.7233 171.026C52.8957 167.247 69.2019 174.818 65.2338 182.28Z" fill="#4F4656"/>
<path d="M65.5421 181.706C66.1627 181.137 68.7034 170.635 71.3378 161.288C72.613 156.766 75.0207 147.322 75.0207 147.322C75.0207 147.322 77.1272 143.769 78.4077 141.144C80.5549 136.741 81.83 130.229 81.83 130.229L51.546 124.352C51.546 124.352 47.958 130.955 47.8621 138.593C47.69 152.235 49.1254 179.007 49.1254 179.007C49.1254 179.007 63.9871 183.134 65.5421 181.706Z" fill="#4F4656"/>
<path d="M88.298 86.5495C88.298 86.5495 85.8624 110.721 89.7592 110.721C93.6548 110.721 95.4697 107.666 96.5321 103.151C97.5949 98.6352 97.4175 92.2161 97.4175 92.2161L88.298 86.5495Z" fill="#FFA98B"/>
<path d="M70.6786 61.7579C75.2614 62.3346 85.4234 63.6907 90.5417 68.1057C92.3587 69.673 94.1415 70.8779 95.0714 73.6673C96.0014 76.4561 97.7278 80.0419 97.1967 83.3619C96.9367 84.9887 92.8899 84.3053 92.8899 84.3053C92.8899 84.3053 91.1554 98.974 90.822 102.885C90.4977 106.682 92.1224 113.332 92.46 118.424C92.6482 121.266 93.3455 122.674 92.9912 124.976C92.6337 127.301 95.2933 129.049 93.3455 131.528C91.9744 133.273 81.1269 136.664 74.0436 135.955C68.2318 135.374 63.6806 135.137 59.7003 133.476C53.0592 130.704 49.4294 132.237 48.0128 131.528C46.5961 130.82 48.1897 112.227 48.1897 107.977C48.1897 103.727 47.3894 88.0155 46.7735 83.5393C46.1566 79.0632 47.0544 70.2369 50.8981 66.8831C54.7412 63.5294 64.4653 60.9737 70.6786 61.7579Z" fill="#BD8D88"/>
<path d="M83.4724 59.3641L82.6679 66.3026C82.6679 66.3026 81.3032 69.7277 75.546 68.519C71.6445 67.7005 68.9575 61.6384 68.9575 61.6384L72.3788 54.1622L83.4724 59.3641Z" fill="#FFA98B"/>
<path d="M91.1398 38.1975C92.5463 37.9397 93.8595 40.6952 92.8223 45.3107C91.8457 49.6572 87.033 50.7779 87.033 50.7779C87.033 50.7779 89.7323 38.4564 91.1398 38.1975Z" fill="#C74601"/>
<path d="M69.2077 37.7848C69.2077 37.7848 67.0921 40.3072 67.1661 42.9003C67.2438 45.6082 68.1389 45.0513 68.7639 46.9772C69.3878 48.9025 69.3438 51.5873 69.8128 52.759C70.5981 54.7154 71.7564 55.3329 73.2132 55.4535C75.5405 55.6518 72.5722 39.4292 72.5722 39.4292L69.2077 37.7848Z" fill="#C74601"/>
<path d="M90.9645 43.5189C91.7524 50.1508 89.5832 59.3716 83.64 61.1597C77.6963 62.9462 71.3372 59.2317 70.5032 48.4169C69.6676 37.6031 76.5225 34.7146 79.2958 34.8046C81.4521 34.8754 90.1734 36.8848 90.9645 43.5189Z" fill="#FFA98B"/>
<path d="M72.4013 46.2016C72.3563 44.1449 68.8691 42.4228 67.8448 44.6643C66.8167 46.9086 68.2109 50.1181 70.6218 50.8857C73.0327 51.6511 72.448 48.2544 72.4013 46.2016Z" fill="#FFA98B"/>
<path d="M80.0462 49.1008C80.1041 49.7488 80.6776 50.2269 81.3246 50.168C81.9715 50.109 82.4496 49.5376 82.3923 48.8907C82.3339 48.241 81.7609 47.764 81.1145 47.8235C80.4621 47.8798 79.9872 48.4528 80.0462 49.1008Z" fill="#520E03"/>
<path d="M87.7716 51.3558C87.9094 51.9759 88.4995 52.3248 89.0838 52.1324C89.668 51.94 90.0287 51.2813 89.8878 50.6606C89.7473 50.0404 89.1593 49.6931 88.5729 49.8839C87.9887 50.0758 87.6296 50.7351 87.7716 51.3558Z" fill="#520E03"/>
<path d="M91.3612 48.6548C90.7346 47.578 89.244 47.2677 88.1302 47.607C87.6098 47.7656 87.8333 48.5846 88.3548 48.4222C88.9953 48.2228 89.6005 48.2877 90.1895 48.6039C90.3659 48.6983 90.5192 48.8237 90.6821 48.9373C90.7159 48.9609 90.9641 49.1308 90.8547 49.0451C91.1281 49.2595 91.5585 48.9941 91.3612 48.6548Z" fill="#C74601"/>
<path d="M83.9869 46.8957C83.5308 46.2241 82.7257 45.9614 81.9726 45.7588C81.4409 45.6157 79.7359 45.2362 79.3988 45.8939C79.0943 46.4867 79.953 46.4471 80.3035 46.4219C81.3182 46.3495 82.678 46.6218 83.4804 47.2864C83.7441 47.5046 84.2067 47.2194 83.9869 46.8957Z" fill="#C74601"/>
<path d="M82.5627 61.3307C82.5627 61.3307 79.4845 61.6046 77.6412 60.7148C75.3466 59.6075 73.5065 57.8006 73.5065 57.8006" stroke="#C6715C" stroke-width="0.536" stroke-miterlimit="10"/>
<path d="M85.9256 56.6916C85.9256 56.6916 83.8374 56.3191 82.4668 55.431C81.0974 54.5417 80.0907 53.1733 79.3184 53.8224C78.5465 54.4699 78.6457 56.6954 81.1681 57.8537C83.3486 58.8555 85.6094 57.4881 85.9256 56.6916Z" fill="white"/>
<path d="M90.2929 34.3351C87.3428 31.3667 84.0802 30.2561 82.5638 29.9785C80.6299 29.622 77.7296 31.7923 77.7296 31.7923C77.7296 31.7923 74.7538 30.6694 71.9414 33.0958C69.129 35.5218 67.916 40.8073 67.916 40.8073C67.916 40.8073 69.3144 41.8198 70.4411 43.6395C71.5683 45.4587 71.3303 48.2057 72.2549 49.3586C73.1785 50.5126 73.7129 46.3061 73.7129 46.3061C73.7129 46.3061 77.9221 41.7796 79.3151 38.8959C79.3151 38.8959 83.087 39.9475 85.172 40.9246C87.2576 41.9002 90.1841 40.9096 91.7101 40.7515C93.2345 40.5929 91.1044 35.1503 90.2929 34.3351Z" fill="#C74601"/>
<path d="M87.4811 48.4131C87.4811 48.4131 87.5331 48.5707 87.6033 48.8441C87.6751 49.1174 87.7689 49.5076 87.8616 49.9707C87.9083 50.2007 87.9586 50.4494 88.0117 50.712C88.068 50.9655 88.1243 51.2496 88.1966 51.4844C88.2593 51.7326 88.3757 51.9973 88.4786 52.3039C88.582 52.6052 88.6849 52.9246 88.7535 53.2687C88.8243 53.6123 88.865 53.9827 88.8103 54.3874C88.761 54.7862 88.5488 55.2423 88.2014 55.5151L88.1698 55.5408L88.1543 55.5537L88.1173 55.581L88.1114 55.5848L88.0642 55.6132L87.9699 55.6695C87.9179 55.7033 87.8273 55.7504 87.7346 55.7901C87.5481 55.8785 87.398 55.9139 87.2383 55.9525C86.9225 56.0109 86.6336 56.0211 86.3731 56.0018C86.1137 55.9718 85.8838 55.9391 85.686 55.8769C85.4888 55.8201 85.3221 55.7617 85.1891 55.699C84.9217 55.5832 84.7855 55.4819 84.7855 55.4819C84.7855 55.4819 84.9474 55.4663 85.2315 55.4385C85.5091 55.4063 85.8993 55.364 86.3254 55.2616C86.5356 55.2048 86.7585 55.1506 86.9622 55.0499C87.0571 54.9984 87.1745 54.9496 87.2361 54.8971C87.2704 54.8735 87.309 54.8569 87.3728 54.8017L87.4591 54.7342L87.5025 54.6999L87.5079 54.6956C87.5154 54.6902 87.4537 54.7358 87.4805 54.7159L87.4816 54.7143L87.4864 54.709L87.4966 54.6983C87.6065 54.5884 87.6671 54.4533 87.6933 54.2378C87.7201 54.0256 87.6912 53.7603 87.6424 53.4864C87.5888 53.2114 87.5148 52.9246 87.4323 52.6336C87.3578 52.3463 87.2484 52.0386 87.2066 51.7042C87.1514 51.3611 87.1621 51.0738 87.1611 50.7892C87.1632 50.5099 87.1788 50.2473 87.205 50.0072C87.2924 49.0451 87.4811 48.4131 87.4811 48.4131Z" fill="#D57961"/>
<path d="M83.7281 29.9302C75.9797 28.5768 69.5048 31.2643 67.9825 39.4925C67.9825 39.4925 74.6729 41.9248 81.4163 43.4192C88.1603 44.9136 92.8738 45.7277 93.7095 44.2698C93.7095 44.2698 93.8054 31.6904 83.7281 29.9302ZM87.204 42.382C85.3613 42.1306 82.766 41.5078 82.766 41.5078C82.766 41.5078 82.9895 36.761 86.9473 37.387C90.9051 38.0142 90.8167 40.4621 90.8108 42.4721C90.8108 42.4721 89.0463 42.6334 87.204 42.382Z" fill="#065C97"/>
<path d="M70.768 40.4599C70.768 40.4599 64.6464 41.2586 63.7899 38.7833C62.7763 35.8536 67.5451 35.6113 69.1858 35.5352C69.1858 35.5352 68.0612 39.1023 70.768 40.4599Z" fill="#06455E"/>
<path d="M92.7125 80.8679C92.7125 80.8679 89.973 79.4336 88.6689 80.8679C87.3643 82.3028 85.5381 84.5197 87.234 85.4336C88.9299 86.3464 92.0602 81.6505 92.7125 80.8679Z" fill="#FFA98B"/>
<path d="M101.979 81.9024C101.979 81.9024 103.837 83.6278 102.5 84.9024C101.444 85.909 99.5003 85.2937 99.1085 84.1198C98.7178 82.9455 100.544 80.9891 101.979 81.9024Z" fill="#FFA98B"/>
<path d="M104.698 77.6069L95.2189 77.72C94.8147 77.7248 94.3591 78.0582 94.2026 78.464L84.6875 89.6369C84.5316 90.0426 84.732 90.368 85.1373 90.3632L94.6153 90.2484C95.0195 90.2431 95.4745 89.9118 95.6311 89.5061L105.147 78.3305C105.304 77.9253 105.102 77.601 104.698 77.6069Z" fill="#292929"/>
<path d="M98.4665 85.9117C97.7868 86.0811 96.3659 86.4718 95.2451 86.3314C94.1243 86.1915 91.7423 85.4909 91.1828 86.4718C90.6226 87.4527 92.1631 88.7133 92.1631 88.7133C92.1631 88.7133 89.221 88.2926 88.9407 89.5538C88.6609 90.8145 89.9216 90.9549 89.9216 90.9549C89.9216 90.9549 88.8008 91.7953 89.3614 92.9156C89.9215 94.0364 93.9839 94.0364 95.385 93.7566C96.7856 93.4762 97.9069 93.056 98.0468 92.6358C98.1867 92.2156 97.9069 91.3751 97.9069 91.3751C97.9069 91.3751 98.7473 91.515 99.0271 90.5347C99.308 89.5538 99.0271 88.8538 99.0271 88.8538C99.0271 88.8538 99.8676 88.433 100.009 87.3133C100.148 86.192 99.7277 84.651 99.7277 84.651C99.7277 84.651 99.026 85.7718 98.4665 85.9117Z" fill="#FFA98B"/>
<path d="M92.1626 88.7133C92.1626 88.7133 96.1167 89.7789 98.7189 88.7836" stroke="#C6715C" stroke-width="0.536" stroke-miterlimit="10"/>
<path d="M90.0699 91.2331C90.0699 91.2331 92.5195 91.6919 94.5863 91.7691C96.652 91.8452 97.9063 91.3746 97.9063 91.3746" stroke="#C6715C" stroke-width="0.536" stroke-miterlimit="10"/>
<path d="M91.8838 94.12C91.8838 94.12 96.3996 94.3853 97.0632 93.4553" stroke="#C6715C" stroke-width="0.536" stroke-miterlimit="10"/>
<path d="M94.2471 89.2826C93.6596 88.8361 92.8031 88.9015 91.5633 88.9063C89.9403 88.9117 88.3559 88.5547 88.3559 88.5547C88.3559 88.5547 92.415 87.6119 93.212 87.6119C94.0085 87.6119 95.6026 86.1507 94.4073 85.0884C93.212 84.0255 88.5639 85.0884 88.5639 85.0884C88.5639 85.0884 88.5735 84.1097 86.3062 83.8931C84.0389 83.676 81.9105 83.7736 80.466 84.7614C79.0204 85.7487 76.8828 88.4105 74.7565 89.2274C73.9675 89.5308 72.6264 90.6665 70.9005 90.9319C69.174 91.1972 64.9241 92.2595 64.9241 92.2595C64.9241 92.2595 63.8618 88.8066 63.3306 86.8143C62.7994 84.8225 61.6036 82.0327 61.6036 82.0327C61.6036 82.0327 58.6379 82.8742 54.9191 83.9365C51.2004 84.9989 48.3671 87.301 48.3671 87.301C48.3671 87.301 49.6063 98.9885 52.4396 103.947C55.2734 108.906 59.7887 108.905 63.33 107.931C66.8714 106.958 75.3129 100.062 77.9393 97.7048C80.7913 97.7782 82.9251 97.5322 84.8917 96.9265C85.7413 96.6644 86.4681 96.7244 87.0411 96.1793C87.4592 95.781 88.1136 94.79 88.1136 94.79C88.1136 94.79 89.1679 94.4989 89.7254 93.7646C90.2833 93.0298 90.5476 92.0725 90.5476 92.0725C90.5476 92.0725 92.3394 91.6957 92.839 91.4963C94.8356 90.6971 94.8345 89.7291 94.2471 89.2826Z" fill="#FFA98B"/>
<path d="M82.5746 86.7114C82.5746 86.7114 85.8308 85.247 88.9621 84.956" stroke="#C6715C" stroke-width="0.536" stroke-miterlimit="10"/>
<path d="M84.5729 91.7048C84.5729 91.7048 88.7033 92.0623 90.6592 91.9267C90.6592 91.9267 94.2745 91.5702 94.2745 90.1359C94.2745 88.701 92.8434 88.5638 92.0608 88.6946C91.2782 88.8254 88.915 88.6437 88.915 88.6437C86.9956 89.0441 84.6436 89.326 84.6436 89.326" stroke="#C6715C" stroke-width="0.536" stroke-miterlimit="10"/>
<path d="M83.7629 94.4486C83.7629 94.4486 86.4537 94.8715 87.8751 94.6769C87.8751 94.6769 90.3016 94.3762 90.6591 91.9272" stroke="#C6715C" stroke-width="0.536" stroke-miterlimit="10"/>
<path d="M91.7515 88.0107C91.7515 88.0107 94.5403 87.6119 94.8061 86.2837" stroke="#C6715C" stroke-width="0.536" stroke-miterlimit="10"/>
<path d="M59.7437 94.3853C59.7437 94.3853 62.5325 92.9242 64.7906 92.1277" stroke="#C6715C" stroke-width="0.536" stroke-miterlimit="10"/>
<path d="M66.2517 130.111C66.2517 130.111 74.3973 131.174 81.8343 130.289C89.2718 129.404 91.9277 126.924 91.9277 126.924" stroke="#976457" stroke-width="0.536" stroke-miterlimit="10"/>
<path d="M49.6057 127.455C49.6057 127.455 56.3341 127.455 60.9389 129.226" stroke="#976457" stroke-width="0.536" stroke-miterlimit="10"/>
<path d="M76.5226 128.163C76.5226 128.163 90.1573 128.341 91.7514 117.715" stroke="#976457" stroke-width="0.536" stroke-miterlimit="10"/>
<path d="M60.5846 119.84C60.5846 119.84 72.4495 123.736 81.3031 122.497" stroke="#976457" stroke-width="0.536" stroke-miterlimit="10"/>
<path d="M66.7823 62.2896C66.7823 62.2896 68.9714 68.7581 74.2199 70.7895C79.7096 72.9142 82.7198 70.0809 83.4284 68.31C84.137 66.5396 83.4284 64.4149 83.4284 64.4149" stroke="#976457" stroke-width="0.536" stroke-miterlimit="10"/>
</svg>
