<svg width="26" height="26" viewBox="0 0 26 26" fill="none" xmlns="http://www.w3.org/2000/svg">
<rect width="26" height="26" rx="5" fill="#D50000"/>
<rect x="2.5" y="2.5" width="21" height="21" rx="3.73077" fill="#D50000" stroke="white"/>
<mask id="mask0_98_6397" style="mask-type:alpha" maskUnits="userSpaceOnUse" x="5" y="5" width="16" height="16">
<rect x="5" y="5" width="16" height="16" fill="#D9D9D9"/>
</mask>
<g mask="url(#mask0_98_6397)">
<path d="M9.20016 19.0244C9.07961 19.0244 8.97555 18.9876 8.888 18.9141C8.80044 18.8405 8.75666 18.746 8.75666 18.6304V17.2971C8.48944 17.1629 8.25977 16.9356 8.06766 16.6154C7.87566 16.2952 7.77966 15.9421 7.77966 15.5561V9.21325C7.77966 8.4538 8.17955 7.89914 8.97933 7.54925C9.77911 7.19936 11.0481 7.02441 12.7863 7.02441C14.5477 7.02441 15.8202 7.19603 16.604 7.53925C17.3878 7.88247 17.7797 8.44047 17.7797 9.21325V15.5561C17.7797 15.9421 17.6837 16.2952 17.4917 16.6154C17.2996 16.9356 17.0699 17.1629 16.8027 17.2971V18.6304C16.8027 18.746 16.7589 18.8405 16.6713 18.9141C16.5838 18.9876 16.4797 19.0244 16.3592 19.0244H16.1223C15.9943 19.0244 15.8866 18.9876 15.799 18.9141C15.7114 18.8405 15.6677 18.746 15.6677 18.6304V17.6731H9.89166V18.6304C9.89166 18.746 9.84789 18.8405 9.76033 18.9141C9.67277 18.9876 9.565 19.0244 9.437 19.0244H9.20016ZM8.61733 12.5946H16.942V9.67658H8.61733V12.5946ZM10.3358 15.9594C10.5669 15.9594 10.7625 15.8789 10.9225 15.7179C11.0825 15.5568 11.1625 15.3607 11.1625 15.1296C11.1625 14.8985 11.082 14.702 10.921 14.5401C10.76 14.3781 10.5639 14.2971 10.3328 14.2971C10.1016 14.2971 9.90505 14.3786 9.74316 14.5416C9.58116 14.7045 9.50016 14.9015 9.50016 15.1326C9.50016 15.3638 9.58166 15.5594 9.74466 15.7194C9.90766 15.8794 10.1047 15.9594 10.3358 15.9594ZM15.2265 15.9594C15.4577 15.9594 15.6543 15.8789 15.8162 15.7179C15.9782 15.5568 16.0592 15.3607 16.0592 15.1296C16.0592 14.8985 15.9777 14.702 15.8147 14.5401C15.6517 14.3781 15.4546 14.2971 15.2235 14.2971C14.9924 14.2971 14.7968 14.3786 14.6368 14.5416C14.4768 14.7045 14.3968 14.9015 14.3968 15.1326C14.3968 15.3638 14.4773 15.5594 14.6383 15.7194C14.7993 15.8794 14.9954 15.9594 15.2265 15.9594ZM8.6575 8.83891H16.9113C16.7207 8.52358 16.2886 8.28191 15.6152 8.11391C14.9416 7.94603 14.001 7.86208 12.7933 7.86208C11.4859 7.86208 10.5083 7.94303 9.8605 8.10491C9.21261 8.26691 8.81161 8.51158 8.6575 8.83891ZM9.9685 16.8356H15.5908C15.9694 16.8356 16.2892 16.6956 16.5503 16.4156C16.8114 16.1357 16.942 15.8079 16.942 15.4321V13.4321H8.61733V15.4321C8.61733 15.8079 8.74789 16.1357 9.009 16.4156C9.27011 16.6956 9.58994 16.8356 9.9685 16.8356Z" fill="white"/>
</g>
</svg>
