<svg width="283" height="283" viewBox="0 0 283 283" fill="none" xmlns="http://www.w3.org/2000/svg">
<path d="M264.259 178.971H171.513V125.289H264.259V178.971ZM172.079 178.405H263.693V125.855H172.079V178.405Z" fill="#E0E0E0"/>
<path d="M245.128 153.911H183.924V155.707H245.128V153.911Z" fill="#F0F0F0"/>
<path d="M249.343 160.602H183.924V162.561H249.343V160.602Z" fill="#F0F0F0"/>
<path d="M249.343 167.372H183.924V169.331H249.343V167.372Z" fill="#F0F0F0"/>
<path d="M205.314 144.194H183.924V148.851H205.314V144.194Z" fill="#F0F0F0"/>
<path d="M263.976 125.571H171.796V134.117H263.976V125.571Z" fill="#E0E0E0"/>
<path d="M256.883 132.84C256.765 132.728 257.953 131.295 259.535 129.641C261.118 127.986 262.497 126.736 262.614 126.849C262.732 126.961 261.544 128.394 259.961 130.048C258.379 131.703 257.001 132.953 256.883 132.84Z" fill="white"/>
<path d="M262.615 132.84C262.497 132.953 261.119 131.703 259.536 130.048C257.953 128.393 256.765 126.961 256.883 126.849C257.001 126.737 258.378 127.986 259.962 129.641C261.545 131.295 262.733 132.728 262.615 132.84Z" fill="white"/>
<path d="M150.119 19.2746H57.9375V72.3908H150.119V19.2746Z" fill="#E6E6E6"/>
<path d="M131.269 47.6147H70.0654V49.4101H131.269V47.6147Z" fill="#F0F0F0"/>
<path d="M135.485 54.306H70.0654V56.2644H135.485V54.306Z" fill="#F0F0F0"/>
<path d="M135.485 61.0748H70.0654V63.0332H135.485V61.0748Z" fill="#F0F0F0"/>
<path d="M91.4557 37.8971H70.0654V42.5547H91.4557V37.8971Z" fill="#F0F0F0"/>
<path d="M150.119 19.2746H57.9375V27.82H150.119V19.2746Z" fill="#E0E0E0"/>
<path d="M142.709 26.503C142.591 26.3903 143.779 24.9578 145.361 23.3034C146.944 21.6484 148.323 20.3986 148.44 20.5107C148.558 20.6233 147.37 22.0553 145.787 23.7103C144.205 25.3647 142.827 26.615 142.709 26.503Z" fill="white"/>
<path d="M148.441 26.5031C148.323 26.6158 146.945 25.3655 145.362 23.711C143.779 22.0561 142.592 20.6235 142.709 20.5114C142.827 20.3988 144.205 21.6491 145.787 23.3041C147.371 24.9579 148.559 26.3905 148.441 26.5031Z" fill="white"/>
<path d="M115.206 117.949H22.4595V64.2665H115.206V117.949ZM23.0255 117.383H114.64V64.8325H23.0255V117.383Z" fill="#E0E0E0"/>
<path d="M96.0745 92.8891H34.8701V94.6844H96.0745V92.8891Z" fill="#F0F0F0"/>
<path d="M100.29 99.5809H34.8701V101.539H100.29V99.5809Z" fill="#F0F0F0"/>
<path d="M100.29 106.35H34.8701V108.308H100.29V106.35Z" fill="#F0F0F0"/>
<path d="M56.2604 83.1714H34.8701V87.8296H56.2604V83.1714Z" fill="#F0F0F0"/>
<path d="M114.923 64.5495H22.7424V73.0955H114.923V64.5495Z" fill="#E0E0E0"/>
<path d="M222.243 130.25H113.399V227.69H222.243V130.25Z" fill="#E6E6E6"/>
<path d="M118.871 99.5549H33.6096V188.139H118.871V99.5549Z" fill="#F0F0F0"/>
<path d="M118.871 99.5549H33.6096V109.207H118.871V99.5549Z" fill="#E0E0E0"/>
<path d="M40.6506 104.282C40.6506 105.316 39.8491 106.153 38.8603 106.153C37.8715 106.153 37.0701 105.316 37.0701 104.282C37.0701 103.249 37.8715 102.411 38.8603 102.411C39.8491 102.411 40.6506 103.249 40.6506 104.282Z" fill="white"/>
<path d="M47.9111 104.282C47.9111 105.316 47.1096 106.153 46.1208 106.153C45.132 106.153 44.3306 105.316 44.3306 104.282C44.3306 103.249 45.132 102.411 46.1208 102.411C47.1096 102.411 47.9111 103.249 47.9111 104.282Z" fill="white"/>
<path d="M55.1726 104.282C55.1726 105.316 54.3711 106.153 53.3823 106.153C52.3935 106.153 51.592 105.316 51.592 104.282C51.592 103.249 52.3935 102.411 53.3823 102.411C54.3711 102.411 55.1726 103.249 55.1726 104.282Z" fill="white"/>
<path d="M252.088 38.6493H143.244V147.129H252.088V38.6493Z" fill="#F0F0F0"/>
<path d="M252.088 38.6493H143.244V51.356H252.088V38.6493Z" fill="#E0E0E0"/>
<path d="M152.513 44.8719C152.513 46.2326 151.458 47.3357 150.156 47.3357C148.855 47.3357 147.8 46.2326 147.8 44.8719C147.8 43.5113 148.855 42.4087 150.156 42.4087C151.458 42.4087 152.513 43.5118 152.513 44.8719Z" fill="white"/>
<path d="M161.382 43.2062C162.344 44.1684 162.378 45.6943 161.458 46.6141C160.537 47.5344 159.011 47.5004 158.05 46.5388C157.088 45.5766 157.054 44.0506 157.974 43.1303C158.894 42.21 160.42 42.244 161.382 43.2062Z" fill="white"/>
<path d="M171.632 44.8719C171.632 46.2326 170.577 47.3357 169.275 47.3357C167.973 47.3357 166.918 46.2326 166.918 44.8719C166.918 43.5113 167.973 42.4087 169.275 42.4087C170.577 42.4087 171.632 43.5118 171.632 44.8719Z" fill="white"/>
<path d="M228.575 256.472C228.575 256.553 189.272 256.62 140.801 256.62C92.3136 256.62 53.019 256.554 53.019 256.472C53.019 256.391 92.313 256.324 140.801 256.324C189.272 256.325 228.575 256.391 228.575 256.472Z" fill="#263238"/>
<path d="M190.277 187.183C181.534 181.074 179.55 169.735 179.896 159.543C179.953 157.842 179.766 156.048 180.576 154.555C181.385 153.062 183.274 152.042 184.797 152.759C186.06 153.354 186.611 154.823 187.318 156.039C188.258 157.656 189.659 158.994 191.308 159.85C192.391 160.412 193.732 160.756 194.801 160.166C196.269 159.356 196.442 157.329 196.431 155.636C196.412 152.483 196.392 149.328 196.373 146.175C196.362 144.483 196.357 142.755 196.883 141.15C197.409 139.544 198.572 138.052 200.182 137.601C201.792 137.15 203.782 138.078 204.122 139.735C204.264 140.424 204.123 141.139 204.17 141.842C204.217 142.544 204.544 143.321 205.212 143.517C205.887 143.716 206.565 143.236 207.07 142.741C208.817 141.032 210.002 138.831 211.11 136.643C212.217 134.454 213.292 132.213 214.877 130.349C216.462 128.485 218.654 127.009 221.077 126.872C223.5 126.735 226.082 128.23 226.695 130.61C227.309 132.995 225.917 135.415 224.403 137.347C222.156 140.212 219.498 142.746 216.538 144.843C216.005 145.222 215.426 145.631 215.223 146.258C214.855 147.386 215.924 148.506 217.038 148.877C218.299 149.297 219.667 149.166 220.987 149.322C222.306 149.477 223.736 150.059 224.234 151.306C224.928 153.036 223.481 154.849 222.058 156.035C219.208 158.413 215.953 160.292 212.481 161.564C211.237 162.019 209.927 162.419 208.923 163.293C207.92 164.168 207.313 165.689 207.92 166.881C208.527 168.074 210.083 168.455 211.387 168.213C212.691 167.971 213.858 167.263 215.101 166.795C217.426 165.917 220.429 166.077 221.919 168.087C222.898 169.408 222.984 171.247 222.489 172.822C221.994 174.396 220.99 175.753 219.924 177.004C216.197 181.377 211.425 184.897 206.031 186.768C200.637 188.638 195.638 189.144 190.277 187.183Z" fill="#E8505B"/>
<path d="M224.25 128.288C224.254 128.292 224.198 128.347 224.086 128.449C223.961 128.561 223.795 128.709 223.584 128.897C223.14 129.289 222.487 129.867 221.665 130.634C220.021 132.163 217.711 134.463 215.202 137.61C213.943 139.178 212.635 140.954 211.265 142.886C209.898 144.821 208.45 146.897 207.01 149.138C205.57 151.377 204.128 153.777 202.835 156.369C202.183 157.663 201.601 159.017 201.008 160.396C200.417 161.776 199.818 163.176 199.212 164.593C196.808 170.267 194.693 175.753 193.182 180.877C191.662 185.996 190.758 190.741 190.362 194.761C189.956 198.783 190.04 202.066 190.204 204.319C190.292 205.445 190.379 206.319 190.458 206.909C190.491 207.192 190.516 207.415 190.536 207.582C190.552 207.734 190.557 207.813 190.552 207.814C190.547 207.814 190.531 207.738 190.504 207.587C190.478 207.421 190.441 207.2 190.396 206.918C190.296 206.33 190.19 205.457 190.083 204.329C189.882 202.074 189.764 198.78 190.143 194.74C190.512 190.702 191.398 185.934 192.908 180.794C194.408 175.65 196.52 170.148 198.927 164.469C199.534 163.052 200.134 161.651 200.725 160.271C201.318 158.895 201.906 157.53 202.563 156.23C203.868 153.624 205.32 151.219 206.771 148.979C208.221 146.737 209.679 144.663 211.055 142.733C212.437 140.806 213.758 139.033 215.032 137.47C217.57 134.33 219.912 132.046 221.584 130.544C222.419 129.789 223.085 129.226 223.543 128.849C223.763 128.671 223.935 128.531 224.065 128.425C224.184 128.33 224.247 128.284 224.25 128.288Z" fill="#263238"/>
<path d="M202.652 156.218C202.631 156.221 202.574 155.964 202.487 155.496C202.398 155.029 202.292 154.348 202.173 153.505C201.934 151.82 201.683 149.482 201.416 146.904C201.148 144.323 200.865 141.996 200.601 140.319C200.472 139.481 200.359 138.803 200.276 138.335C200.195 137.867 200.161 137.606 200.182 137.601C200.203 137.596 200.277 137.849 200.395 138.31C200.515 138.771 200.66 139.444 200.817 140.281C201.138 141.954 201.458 144.287 201.725 146.87C201.982 149.415 202.214 151.717 202.391 153.477C202.476 154.271 202.549 154.941 202.607 155.478C202.656 155.951 202.674 156.215 202.652 156.218Z" fill="#263238"/>
<path d="M224.408 152.152C224.409 152.174 224.099 152.21 223.541 152.256C222.983 152.306 222.174 152.373 221.179 152.489C219.186 152.704 216.444 153.097 213.438 153.664C210.432 154.236 207.733 154.869 205.794 155.384C204.823 155.634 204.042 155.858 203.501 156.01C202.961 156.163 202.66 156.239 202.652 156.218C202.646 156.197 202.935 156.083 203.465 155.893C203.996 155.705 204.769 155.448 205.736 155.169C207.665 154.598 210.365 153.929 213.38 153.354C216.396 152.787 219.153 152.426 221.157 152.268C222.159 152.18 222.972 152.146 223.534 152.135C224.097 152.125 224.407 152.13 224.408 152.152Z" fill="#263238"/>
<path d="M193.176 180.393C193.166 180.398 193.115 180.307 193.027 180.128C192.926 179.915 192.803 179.655 192.655 179.34C192.335 178.656 191.897 177.653 191.373 176.406C190.324 173.914 188.982 170.425 187.554 166.556C186.125 162.685 184.817 159.189 183.821 156.679C183.333 155.459 182.931 154.455 182.632 153.709C182.505 153.385 182.4 153.118 182.313 152.898C182.244 152.712 182.211 152.612 182.222 152.607C182.232 152.603 182.282 152.694 182.371 152.873C182.472 153.085 182.595 153.345 182.743 153.659C183.063 154.344 183.5 155.347 184.024 156.594C185.074 159.086 186.416 162.574 187.844 166.445C189.273 170.315 190.58 173.811 191.576 176.321C192.065 177.541 192.466 178.546 192.765 179.291C192.893 179.615 192.998 179.883 193.084 180.102C193.154 180.289 193.186 180.389 193.176 180.393Z" fill="#263238"/>
<path d="M222.086 171.076C222.089 171.087 221.99 171.127 221.799 171.194C221.573 171.27 221.295 171.363 220.96 171.475C220.184 171.727 219.137 172.066 217.864 172.478C215.25 173.326 211.653 174.539 207.681 175.883C203.707 177.229 200.096 178.409 197.463 179.203C196.147 179.6 195.079 179.911 194.337 180.11C193.994 180.2 193.711 180.274 193.481 180.336C193.284 180.384 193.179 180.403 193.176 180.393C193.173 180.383 193.273 180.342 193.463 180.274C193.689 180.199 193.966 180.106 194.303 179.994C195.078 179.742 196.125 179.403 197.398 178.99C200.012 178.143 203.609 176.93 207.583 175.585C211.555 174.239 215.166 173.059 217.798 172.265C219.114 171.868 220.182 171.557 220.925 171.358C221.268 171.268 221.55 171.193 221.781 171.133C221.978 171.085 222.083 171.066 222.086 171.076Z" fill="#263238"/>
<path d="M210.292 33.7783L207.376 34.8215L206.129 31.0128C203.829 23.9877 196.488 20.2288 189.773 22.631C183.055 25.0342 179.463 32.7041 181.763 39.7292L183.01 43.5379L180.084 44.5844C177.808 45.3983 176.577 48.0211 177.356 50.4023L185.47 75.188C186.262 77.6054 188.774 78.8942 191.049 78.0803L221.259 67.2736C223.571 66.4467 224.804 63.8176 224.012 61.4008L215.898 36.6151C215.117 34.234 212.604 32.9508 210.292 33.7783ZM187.267 37.7596C186.006 33.9096 187.974 29.7054 191.657 28.3877C195.337 27.0712 199.358 29.1332 200.619 32.9831L201.866 36.7923L188.514 41.5682L187.267 37.7596ZM204.252 59.7504L206.324 66.0799C206.411 66.3477 206.258 66.621 206 66.7139L203.101 67.7508C202.879 67.83 202.595 67.7129 202.508 67.4451L200.435 61.1156C198.19 61.0205 196.106 59.5325 195.326 57.1513C194.324 54.0898 195.892 50.7425 198.83 49.6914C201.766 48.6409 204.966 50.2823 205.969 53.3444C206.748 55.7255 205.973 58.2369 204.252 59.7504Z" fill="#E8505B"/>
<path d="M207.248 34.753C207.276 34.8294 201.843 36.8636 195.114 39.2951C188.384 41.7278 182.907 43.6375 182.88 43.5611C182.852 43.4846 188.284 41.451 195.015 39.0183C201.742 36.5868 207.221 34.6766 207.248 34.753Z" fill="#263238"/>
<path d="M213.663 35.7961C213.668 35.7944 213.69 35.8448 213.728 35.9444C213.771 36.0598 213.826 36.2059 213.893 36.3881C214.038 36.8007 214.24 37.3747 214.497 38.1037C215.018 39.6189 215.758 41.7748 216.669 44.4304C217.578 47.1116 218.657 50.2936 219.854 53.826C220.445 55.5993 221.091 57.4416 221.711 59.3875C221.997 60.3656 222.235 61.411 222.136 62.4937C222.085 63.0309 221.939 63.5714 221.678 64.0604C221.411 64.5461 221.039 64.9734 220.608 65.3215C219.738 66.0171 218.719 66.4235 217.735 66.788C216.748 67.1429 215.774 67.4927 214.818 67.8362C212.905 68.5205 211.06 69.181 209.301 69.811C205.787 71.0619 202.621 72.1893 199.954 73.1391C197.305 74.0707 195.155 74.8269 193.644 75.3584C192.914 75.6085 192.337 75.8061 191.924 75.9476C191.74 76.0076 191.591 76.0557 191.474 76.0936C191.372 76.1253 191.319 76.1389 191.317 76.1338C191.316 76.1292 191.366 76.106 191.464 76.0653C191.579 76.02 191.724 75.9628 191.904 75.8915C192.314 75.7376 192.883 75.5225 193.606 75.2503C195.109 74.6973 197.249 73.9111 199.884 72.9427C202.545 71.9759 205.703 70.8287 209.21 69.5557C210.966 68.9207 212.81 68.2551 214.72 67.5645C215.676 67.2198 216.648 66.8689 217.635 66.5129C218.611 66.1512 219.602 65.7499 220.423 65.0923C220.83 64.764 221.173 64.3678 221.42 63.9206C221.661 63.4701 221.797 62.9714 221.845 62.466C221.94 61.4489 221.716 60.4329 221.435 59.4696C220.825 57.5429 220.179 55.6842 219.597 53.9132C218.423 50.374 217.364 47.184 216.472 44.4972C215.598 41.8291 214.888 39.663 214.389 38.141C214.154 37.4047 213.97 36.8245 213.837 36.4079C213.781 36.2217 213.736 36.0729 213.701 35.9546C213.67 35.851 213.658 35.7978 213.663 35.7961Z" fill="#263238"/>
<path d="M197.727 27.9909C197.713 28.0159 197.427 27.8387 196.87 27.6146C196.313 27.4017 195.469 27.1533 194.4 27.1193C193.337 27.0803 192.045 27.2444 190.754 27.8081C189.468 28.3651 188.202 29.3539 187.295 30.6993C186.37 32.0395 185.965 33.5904 185.965 34.9969C185.953 36.4096 186.253 37.6678 186.541 38.7002C186.839 39.7337 187.144 40.5539 187.345 41.1233C187.548 41.6927 187.658 42.0091 187.638 42.017C187.62 42.0238 187.475 41.7221 187.238 41.1652C187.004 40.6071 186.669 39.7966 186.342 38.7602C186.025 37.725 185.696 36.4509 185.693 34.9952C185.678 33.5474 186.092 31.9207 187.05 30.5334C187.991 29.1388 189.309 28.1217 190.647 27.5585C191.989 26.9897 193.322 26.8437 194.41 26.9105C195.506 26.9721 196.362 27.2591 196.916 27.5087C197.19 27.6429 197.399 27.7527 197.531 27.8449C197.666 27.9326 197.733 27.9819 197.727 27.9909Z" fill="#263238"/>
<path d="M197.985 50.1385C197.981 50.1312 198.079 50.0825 198.271 49.9959C198.462 49.907 198.754 49.7933 199.145 49.6818C199.533 49.5601 200.029 49.4718 200.616 49.4373C201.201 49.4084 201.889 49.469 202.601 49.7333C204.048 50.2415 205.38 51.7199 206.035 53.6789C206.349 54.6682 206.377 55.8172 206.061 56.9283C205.723 58.0348 205.104 59.0961 204.21 59.9881L204.247 59.8381C204.999 61.9012 205.817 64.1465 206.67 66.4824L206.721 66.6244L206.578 66.6725C206.168 66.8101 205.727 66.9578 205.284 67.1061C204.331 67.4253 203.39 67.74 202.468 68.049L202.329 68.0955L202.283 67.9557C201.507 65.609 200.658 63.3965 200.041 61.2819L200.163 61.3782C199.004 61.3006 197.963 60.8144 197.134 60.1805C196.301 59.5404 195.663 58.7457 195.233 57.9097C194.81 57.0709 194.598 56.1806 194.633 55.3605C194.654 54.5409 194.843 53.7989 195.108 53.1734C195.636 51.9118 196.423 51.1183 197.006 50.6853C197.6 50.2512 197.985 50.1385 197.985 50.1385C197.998 50.164 197.625 50.3061 197.059 50.7538C196.503 51.2009 195.753 51.9956 195.259 53.2351C194.766 54.4447 194.552 56.1834 195.434 57.8061C195.857 58.6082 196.48 59.3706 197.286 59.9813C198.088 60.5858 199.088 61.0414 200.177 61.1082L200.273 61.1138L200.299 61.2044C200.924 63.3043 201.778 65.5077 202.56 67.864L202.374 67.7711C203.296 67.4621 204.237 67.1463 205.19 66.8265C205.633 66.6782 206.073 66.5305 206.484 66.3929L206.392 66.5825C205.546 64.2444 204.732 61.9968 203.986 59.9326L203.955 59.8494L204.023 59.7826C204.869 58.9455 205.486 57.9075 205.811 56.8547C206.12 55.7923 206.102 54.7005 205.809 53.7474C205.19 51.8462 203.918 50.4006 202.539 49.8929C201.858 49.6269 201.191 49.5544 200.619 49.5697C200.045 49.5901 199.554 49.6631 199.167 49.7695C198.39 49.9699 197.995 50.1634 197.985 50.1385Z" fill="#263238"/>
<path d="M180.492 213.562L123.96 213.3C117.16 213.269 111.673 207.733 111.702 200.934L112.301 59.2053C112.33 52.402 117.869 46.9112 124.672 46.9429L181.205 47.2038C188.004 47.2355 193.491 52.7716 193.462 59.5704L192.863 201.299C192.835 208.102 187.296 213.594 180.492 213.562Z" fill="#455A64"/>
<path d="M181.124 52.0952L170.164 52.0448C168.694 52.0381 167.497 53.2787 167.491 54.8148L167.482 56.8032C167.475 58.3399 166.278 59.58 164.808 59.5732L143.444 59.4747C141.974 59.4679 140.787 58.2165 140.794 56.6798L140.802 54.6915C140.808 53.1548 139.622 51.9033 138.152 51.8966L134.297 51.8784L124.704 51.8343C119.94 51.8122 116.06 55.6576 116.04 60.4222L115.455 198.759C115.435 203.522 119.278 207.399 124.039 207.421L180.459 207.681C185.223 207.703 189.103 203.858 189.124 199.093L189.708 60.7556C189.729 55.9944 185.886 52.1179 181.124 52.0952Z" fill="white"/>
<path d="M173.531 189.228L131.577 189.034C131.143 189.032 130.793 188.56 130.796 187.978L130.842 177.002C130.844 176.421 131.199 175.952 131.633 175.954L173.587 176.148C174.022 176.15 174.372 176.623 174.369 177.204L174.323 188.179C174.321 188.76 173.966 189.23 173.531 189.228Z" fill="#E8505B"/>
<path d="M144.373 184.256C144.134 184.255 143.905 184.216 143.685 184.138C143.467 184.061 143.299 183.959 143.18 183.833L143.315 183.571C143.431 183.688 143.585 183.784 143.778 183.858C143.97 183.93 144.169 183.966 144.374 183.967C144.662 183.968 144.878 183.917 145.023 183.814C145.167 183.707 145.24 183.57 145.24 183.401C145.241 183.272 145.202 183.17 145.122 183.093C145.046 183.016 144.951 182.957 144.838 182.917C144.725 182.873 144.568 182.827 144.366 182.777C144.124 182.714 143.931 182.655 143.787 182.6C143.644 182.541 143.52 182.453 143.416 182.336C143.316 182.219 143.266 182.061 143.267 181.862C143.268 181.7 143.311 181.553 143.397 181.422C143.484 181.287 143.616 181.181 143.794 181.102C143.972 181.023 144.192 180.984 144.456 180.985C144.64 180.986 144.819 181.013 144.993 181.066C145.17 181.116 145.323 181.185 145.452 181.275L145.336 181.545C145.201 181.456 145.058 181.389 144.905 181.346C144.752 181.299 144.602 181.276 144.455 181.275C144.173 181.274 143.96 181.328 143.815 181.437C143.674 181.544 143.603 181.683 143.602 181.854C143.602 181.983 143.64 182.087 143.716 182.167C143.795 182.244 143.893 182.304 144.009 182.348C144.128 182.388 144.287 182.433 144.486 182.483C144.722 182.543 144.912 182.602 145.055 182.661C145.202 182.716 145.326 182.803 145.426 182.92C145.527 183.033 145.577 183.188 145.576 183.384C145.575 183.547 145.53 183.695 145.441 183.829C145.355 183.961 145.221 184.066 145.04 184.144C144.859 184.22 144.637 184.257 144.373 184.256ZM146.327 181.022L146.667 181.023L146.653 184.239L146.313 184.238L146.327 181.022ZM150.401 181.04L150.387 184.256L150.107 184.255L148.05 181.636L148.039 184.246L147.699 184.244L147.713 181.028L147.993 181.029L150.054 183.648L150.065 181.039L150.401 181.04ZM153.708 182.664L154.035 182.665L154.029 183.892C153.879 184.023 153.701 184.123 153.495 184.192C153.29 184.262 153.074 184.296 152.847 184.295C152.525 184.294 152.236 184.222 151.98 184.08C151.723 183.938 151.522 183.742 151.376 183.494C151.23 183.242 151.157 182.961 151.159 182.652C151.16 182.343 151.235 182.064 151.383 181.817C151.531 181.566 151.734 181.371 151.992 181.231C152.249 181.092 152.541 181.023 152.865 181.024C153.11 181.025 153.335 181.066 153.54 181.147C153.745 181.224 153.918 181.34 154.058 181.494L153.846 181.709C153.592 181.456 153.27 181.329 152.878 181.327C152.617 181.326 152.381 181.383 152.17 181.499C151.961 181.611 151.796 181.77 151.676 181.974C151.556 182.176 151.495 182.402 151.494 182.653C151.493 182.905 151.552 183.131 151.67 183.334C151.789 183.537 151.952 183.697 152.16 183.814C152.368 183.932 152.602 183.991 152.862 183.992C153.193 183.994 153.473 183.912 153.704 183.748L153.708 182.664ZM157.488 184.317C157.071 184.315 156.747 184.194 156.515 183.954C156.284 183.714 156.169 183.366 156.171 182.909L156.178 181.067L156.518 181.069L156.511 182.897C156.509 183.271 156.592 183.55 156.76 183.734C156.927 183.919 157.171 184.012 157.489 184.013C157.811 184.015 158.056 183.924 158.225 183.741C158.395 183.558 158.48 183.28 158.482 182.906L158.489 181.078L158.82 181.079L158.812 182.921C158.81 183.378 158.692 183.725 158.459 183.963C158.228 184.2 157.904 184.318 157.488 184.317ZM161.048 181.089C161.459 181.091 161.78 181.191 162.012 181.388C162.244 181.585 162.359 181.855 162.357 182.198C162.356 182.541 162.238 182.81 162.005 183.005C161.771 183.197 161.449 183.292 161.039 183.29L160.175 183.286L160.171 184.301L159.831 184.3L159.844 181.084L161.048 181.089ZM161.031 182.991C161.349 182.993 161.593 182.925 161.762 182.788C161.931 182.648 162.016 182.451 162.017 182.196C162.019 181.936 161.935 181.737 161.767 181.598C161.599 181.456 161.356 181.385 161.038 181.383L160.183 181.379L160.176 182.987L161.031 182.991Z" fill="#E8E8E3"/>
<path d="M139.938 92.7495L125.383 92.6825L125.37 95.3534L139.926 95.4204L139.938 92.7495Z" fill="#E8505B"/>
<path opacity="0.1" d="M139.938 92.7495L125.383 92.6825L125.37 95.3534L139.926 95.4204L139.938 92.7495Z" fill="black"/>
<path d="M182.623 109.14C182.621 109.128 182.745 109.146 182.955 109.061C183.154 108.984 183.467 108.743 183.504 108.3C183.502 107.397 183.499 106.085 183.496 104.4C183.496 103.552 183.495 102.611 183.494 101.581C183.495 101.323 183.495 101.06 183.495 100.791C183.502 100.516 183.502 100.261 183.337 100.05C183.188 99.8396 182.933 99.7055 182.667 99.7043C182.377 99.7038 182.081 99.7032 181.781 99.7026C179.372 99.6981 176.632 99.6924 173.605 99.6868C161.48 99.6415 144.747 99.5798 126.265 99.5113C126.021 99.5096 125.782 99.629 125.641 99.8266C125.483 100.027 125.49 100.263 125.494 100.566C125.491 101.141 125.489 101.713 125.486 102.284C125.481 103.426 125.476 104.559 125.472 105.685C125.469 106.248 125.466 106.808 125.464 107.367C125.473 107.635 125.438 107.955 125.487 108.163C125.543 108.39 125.716 108.582 125.929 108.673C126.041 108.718 126.145 108.734 126.28 108.733L126.694 108.735L127.52 108.739C128.07 108.742 128.617 108.744 129.162 108.747C133.521 108.771 137.725 108.793 141.732 108.814C149.74 108.863 156.953 108.907 163.014 108.944C169.064 108.991 173.964 109.03 177.362 109.057C179.048 109.077 180.361 109.092 181.263 109.103C181.701 109.111 182.038 109.117 182.278 109.122C182.506 109.129 182.623 109.14 182.623 109.14C182.623 109.14 182.506 109.149 182.277 109.153C182.038 109.155 181.701 109.158 181.263 109.163C180.359 109.165 179.047 109.168 177.361 109.172C173.962 109.168 169.063 109.161 163.013 109.153C156.951 109.134 149.738 109.111 141.729 109.086C137.724 109.07 133.519 109.054 129.16 109.037C128.615 109.035 128.068 109.033 127.518 109.03L126.692 109.027L126.278 109.025C126.136 109.028 125.961 109.006 125.816 108.943C125.52 108.818 125.284 108.553 125.204 108.238C125.16 108.078 125.17 107.916 125.169 107.785L125.171 107.367C125.173 106.808 125.176 106.247 125.178 105.685C125.182 104.559 125.187 103.425 125.191 102.284C125.194 101.714 125.196 101.141 125.198 100.566C125.203 100.419 125.19 100.29 125.213 100.114C125.238 99.9488 125.302 99.7887 125.402 99.654C125.596 99.3806 125.93 99.2136 126.265 99.2176C144.747 99.3194 161.48 99.4123 173.605 99.4791C176.633 99.5011 179.372 99.5209 181.781 99.5385C182.081 99.5408 182.377 99.543 182.667 99.5458C182.984 99.5487 183.286 99.7117 183.459 99.9607C183.653 100.205 183.651 100.539 183.64 100.792C183.638 101.061 183.636 101.324 183.634 101.582C183.624 102.612 183.616 103.553 183.609 104.401C183.588 106.088 183.572 107.401 183.561 108.305C183.511 108.777 183.172 109.019 182.964 109.09C182.745 109.168 182.623 109.14 182.623 109.14Z" fill="#E0E0E0"/>
<path d="M155.916 103.078L129.289 102.955L129.278 105.452L155.904 105.575L155.916 103.078Z" fill="#E8505B"/>
<path opacity="0.2" d="M155.916 103.078L129.289 102.955L129.278 105.452L155.904 105.575L155.916 103.078Z" fill="white"/>
<path d="M139.836 117.123L125.28 117.056L125.268 119.727L139.824 119.794L139.836 117.123Z" fill="#E8505B"/>
<path opacity="0.1" d="M139.836 117.123L125.28 117.056L125.268 119.727L139.824 119.794L139.836 117.123Z" fill="black"/>
<path d="M182.249 133.512C182.248 133.502 182.368 133.513 182.585 133.449C182.79 133.381 183.121 133.212 183.302 132.807C183.399 132.608 183.408 132.366 183.4 132.09C183.399 131.815 183.398 131.515 183.396 131.19C183.395 130.539 183.394 129.789 183.392 128.947C183.392 128.102 183.391 127.163 183.391 126.137C183.391 125.88 183.391 125.618 183.391 125.35C183.404 125.08 183.371 124.829 183.226 124.603C183.09 124.381 182.869 124.205 182.611 124.127C182.358 124.046 182.055 124.09 181.756 124.078C179.356 124.073 176.625 124.068 173.607 124.062C161.524 124.017 144.849 123.955 126.431 123.887C125.92 123.875 125.447 124.292 125.398 124.798C125.381 125.336 125.389 125.931 125.383 126.493C125.378 127.63 125.373 128.76 125.368 129.881C125.366 130.442 125.363 131.001 125.361 131.558C125.371 131.836 125.331 132.126 125.397 132.348C125.461 132.582 125.61 132.791 125.81 132.928C126.018 133.068 126.242 133.119 126.514 133.109L127.337 133.113C127.885 133.116 128.43 133.119 128.974 133.122C133.318 133.144 137.508 133.167 141.499 133.188C149.481 133.236 156.668 133.281 162.709 133.317C168.738 133.365 173.62 133.403 177.007 133.43C178.687 133.45 179.994 133.465 180.894 133.476C181.33 133.484 181.666 133.491 181.905 133.495C182.133 133.501 182.249 133.512 182.249 133.512C182.249 133.512 182.132 133.522 181.904 133.525C181.666 133.527 181.33 133.531 180.894 133.535C179.994 133.538 178.686 133.541 177.006 133.545C173.62 133.541 168.737 133.534 162.707 133.526C156.667 133.508 149.479 133.485 141.498 133.46C137.506 133.444 133.316 133.428 128.973 133.411C128.429 133.408 127.884 133.406 127.336 133.404L126.513 133.401C126.236 133.415 125.896 133.349 125.646 133.17C125.389 132.994 125.198 132.726 125.115 132.425C125.031 132.108 125.081 131.833 125.069 131.557C125.071 131 125.073 130.441 125.075 129.88C125.08 128.758 125.085 127.629 125.089 126.491C125.096 125.915 125.084 125.368 125.105 124.763C125.168 124.111 125.776 123.575 126.432 123.592C144.85 123.694 161.525 123.786 173.608 123.853C176.625 123.875 179.355 123.895 181.756 123.913C182.052 123.929 182.351 123.88 182.657 123.974C182.953 124.067 183.203 124.269 183.356 124.523C183.518 124.771 183.553 125.089 183.537 125.35C183.534 125.618 183.533 125.88 183.531 126.138C183.521 127.164 183.513 128.102 183.506 128.947C183.497 129.79 183.489 130.539 183.482 131.191C183.478 131.515 183.475 131.815 183.472 132.09C183.477 132.36 183.461 132.627 183.355 132.832C183.156 133.252 182.806 133.418 182.592 133.478C182.368 133.534 182.249 133.512 182.249 133.512Z" fill="#E0E0E0"/>
<path d="M139.726 142.547L125.171 142.48L125.158 145.151L139.714 145.218L139.726 142.547Z" fill="#E8505B"/>
<path opacity="0.1" d="M139.726 142.547L125.171 142.48L125.158 145.151L139.714 145.218L139.726 142.547Z" fill="black"/>
<path d="M182.141 158.933C182.14 158.923 182.26 158.933 182.477 158.87C182.683 158.803 183.013 158.632 183.194 158.228C183.291 158.029 183.3 157.787 183.292 157.51C183.291 157.235 183.289 156.935 183.288 156.611C183.287 155.96 183.286 155.21 183.284 154.367C183.284 153.522 183.284 152.584 183.283 151.557C183.283 151.301 183.284 151.038 183.284 150.77C183.296 150.499 183.263 150.249 183.118 150.023C182.982 149.802 182.761 149.626 182.503 149.546C182.25 149.466 181.947 149.51 181.647 149.498C179.248 149.493 176.517 149.487 173.5 149.482C161.416 149.437 144.741 149.375 126.324 149.307C125.812 149.294 125.339 149.712 125.29 150.218C125.273 150.756 125.281 151.351 125.276 151.912C125.271 153.049 125.266 154.18 125.261 155.301C125.259 155.862 125.256 156.42 125.254 156.977C125.264 157.255 125.223 157.545 125.289 157.767C125.353 158.002 125.502 158.211 125.702 158.348C125.91 158.487 126.135 158.539 126.406 158.529L127.23 158.533C127.778 158.535 128.323 158.538 128.866 158.541C133.21 158.564 137.4 158.586 141.392 158.607C149.373 158.657 156.561 158.7 162.601 158.737C168.63 158.785 173.512 158.823 176.899 158.85C178.579 158.869 179.887 158.885 180.787 158.895C181.223 158.904 181.559 158.91 181.797 158.915C182.024 158.923 182.141 158.933 182.141 158.933C182.141 158.933 182.024 158.942 181.797 158.946C181.558 158.948 181.222 158.951 180.786 158.956C179.886 158.958 178.578 158.962 176.898 158.966C173.512 158.961 168.629 158.955 162.599 158.947C156.559 158.928 149.371 158.906 141.39 158.881C137.398 158.865 133.208 158.848 128.865 158.831C128.321 158.829 127.776 158.826 127.228 158.824L126.405 158.821C126.128 158.835 125.788 158.768 125.538 158.59C125.281 158.414 125.09 158.147 125.007 157.846C124.923 157.529 124.973 157.252 124.961 156.977C124.963 156.42 124.965 155.861 124.968 155.301C124.972 154.179 124.977 153.049 124.981 151.912C124.988 151.336 124.977 150.789 124.998 150.184C125.06 149.532 125.668 148.996 126.325 149.013C144.743 149.115 161.417 149.207 173.5 149.274C176.517 149.296 179.248 149.316 181.648 149.333C181.944 149.349 182.243 149.301 182.55 149.395C182.845 149.487 183.095 149.69 183.248 149.944C183.411 150.193 183.446 150.51 183.429 150.772C183.427 151.039 183.425 151.301 183.422 151.558C183.413 152.585 183.405 153.524 183.398 154.368C183.389 155.211 183.382 155.961 183.375 156.612C183.371 156.936 183.367 157.237 183.364 157.511C183.369 157.782 183.352 158.049 183.246 158.253C183.047 158.673 182.697 158.839 182.484 158.899C182.26 158.954 182.141 158.933 182.141 158.933Z" fill="#E0E0E0"/>
<path d="M155.814 127.452L129.187 127.329L129.175 129.826L155.802 129.948L155.814 127.452Z" fill="#E8505B"/>
<path opacity="0.2" d="M155.814 127.452L129.187 127.329L129.175 129.826L155.802 129.948L155.814 127.452Z" fill="white"/>
<path d="M131.601 154.313C131.598 154.998 131.075 155.552 130.432 155.549C129.789 155.545 129.27 154.987 129.273 154.302C129.276 153.616 129.8 153.062 130.443 153.066C131.086 153.068 131.604 153.627 131.601 154.313Z" fill="#E8505B"/>
<path d="M135.208 154.33C135.206 155.015 134.682 155.569 134.039 155.566C133.396 155.563 132.878 155.005 132.88 154.319C132.883 153.633 133.407 153.08 134.05 153.083C134.693 153.085 135.211 153.644 135.208 154.33Z" fill="#E8505B"/>
<path d="M138.816 154.346C138.813 155.031 138.289 155.586 137.646 155.582C137.003 155.579 136.485 155.021 136.488 154.335C136.49 153.65 137.014 153.096 137.657 153.099C138.299 153.102 138.818 153.66 138.816 154.346Z" fill="#E8505B"/>
<path d="M142.422 154.362C142.419 155.048 141.896 155.602 141.253 155.598C140.61 155.596 140.091 155.038 140.094 154.352C140.097 153.666 140.621 153.113 141.264 153.115C141.906 153.119 142.425 153.677 142.422 154.362Z" fill="#E8505B"/>
<path d="M146.03 154.379C146.027 155.065 145.503 155.618 144.86 155.615C144.217 155.612 143.698 155.054 143.701 154.369C143.705 153.683 144.228 153.129 144.871 153.132C145.514 153.135 146.032 153.693 146.03 154.379Z" fill="#E8505B"/>
<path d="M149.636 154.396C149.633 155.082 149.11 155.635 148.467 155.632C147.824 155.629 147.306 155.071 147.308 154.386C147.311 153.7 147.835 153.147 148.477 153.149C149.121 153.152 149.639 153.71 149.636 154.396Z" fill="#E8505B"/>
<path d="M153.244 154.412C153.241 155.098 152.717 155.652 152.075 155.649C151.432 155.645 150.913 155.087 150.916 154.402C150.919 153.716 151.442 153.163 152.085 153.166C152.727 153.169 153.246 153.727 153.244 154.412Z" fill="#E8505B"/>
<path d="M156.851 154.429C156.848 155.115 156.324 155.668 155.682 155.665C155.039 155.662 154.52 155.104 154.523 154.418C154.526 153.733 155.05 153.179 155.692 153.182C156.335 153.185 156.853 153.743 156.851 154.429Z" fill="#E8505B"/>
<path d="M160.458 154.446C160.455 155.132 159.931 155.685 159.289 155.682C158.646 155.679 158.127 155.121 158.13 154.435C158.133 153.75 158.657 153.197 159.299 153.199C159.942 153.202 160.46 153.76 160.458 154.446Z" fill="#E8505B"/>
<g opacity="0.2">
<path d="M131.601 154.313C131.598 154.998 131.075 155.552 130.432 155.549C129.789 155.545 129.27 154.987 129.273 154.302C129.276 153.616 129.8 153.062 130.443 153.066C131.086 153.068 131.604 153.627 131.601 154.313Z" fill="white"/>
<path d="M135.208 154.33C135.206 155.015 134.682 155.569 134.039 155.566C133.396 155.563 132.878 155.005 132.88 154.319C132.883 153.633 133.407 153.08 134.05 153.083C134.693 153.085 135.211 153.644 135.208 154.33Z" fill="white"/>
<path d="M138.816 154.346C138.813 155.031 138.289 155.586 137.646 155.582C137.003 155.579 136.485 155.021 136.488 154.335C136.49 153.65 137.014 153.096 137.657 153.099C138.299 153.102 138.818 153.66 138.816 154.346Z" fill="white"/>
<path d="M142.422 154.362C142.419 155.048 141.896 155.602 141.253 155.598C140.61 155.596 140.091 155.038 140.094 154.352C140.097 153.666 140.621 153.113 141.264 153.115C141.906 153.119 142.425 153.677 142.422 154.362Z" fill="white"/>
<path d="M146.03 154.379C146.027 155.065 145.503 155.618 144.86 155.615C144.217 155.612 143.698 155.054 143.701 154.369C143.705 153.683 144.228 153.129 144.871 153.132C145.514 153.135 146.032 153.693 146.03 154.379Z" fill="white"/>
<path d="M149.636 154.396C149.633 155.082 149.11 155.635 148.467 155.632C147.824 155.629 147.306 155.071 147.308 154.386C147.311 153.7 147.835 153.147 148.477 153.149C149.121 153.152 149.639 153.71 149.636 154.396Z" fill="white"/>
<path d="M153.244 154.412C153.241 155.098 152.717 155.652 152.075 155.649C151.432 155.645 150.913 155.087 150.916 154.402C150.919 153.716 151.442 153.163 152.085 153.166C152.727 153.169 153.246 153.727 153.244 154.412Z" fill="white"/>
<path d="M156.851 154.429C156.848 155.115 156.324 155.668 155.682 155.665C155.039 155.662 154.52 155.104 154.523 154.418C154.526 153.733 155.05 153.179 155.692 153.182C156.335 153.185 156.853 153.743 156.851 154.429Z" fill="white"/>
<path d="M160.458 154.446C160.455 155.132 159.931 155.685 159.289 155.682C158.646 155.679 158.127 155.121 158.13 154.435C158.133 153.75 158.657 153.197 159.299 153.199C159.942 153.202 160.46 153.76 160.458 154.446Z" fill="white"/>
</g>
<path d="M155.335 72.7344C156.097 72.4146 156.638 71.6296 156.643 70.7042C156.648 69.4918 155.73 68.5047 154.593 68.499C153.457 68.4939 152.531 69.4726 152.526 70.6849C152.522 71.6188 153.068 72.4141 153.838 72.7344C150.67 73.2116 150.813 76.6545 150.813 76.6545L158.304 76.6891C158.304 76.6891 158.475 73.2087 155.335 72.7344Z" fill="#E8505B"/>
<path opacity="0.1" d="M155.335 72.7344C156.097 72.4146 156.638 71.6296 156.643 70.7042C156.648 69.4918 155.73 68.5047 154.593 68.499C153.457 68.4939 152.531 69.4726 152.526 70.6849C152.522 71.6188 153.068 72.4141 153.838 72.7344C150.67 73.2116 150.813 76.6545 150.813 76.6545L158.304 76.6891C158.304 76.6891 158.475 73.2087 155.335 72.7344Z" fill="black"/>
<path d="M167.511 78.9411L140.799 78.8183L140.785 82.0122L167.496 82.1351L167.511 78.9411Z" fill="#E8505B"/>
<path opacity="0.2" d="M167.511 78.9411L140.799 78.8183L140.785 82.0122L167.496 82.1351L167.511 78.9411Z" fill="white"/>
<path d="M69.3153 95.4712C69.3153 95.4768 69.2259 95.4865 69.0527 95.5006C68.8653 95.5142 68.6101 95.5329 68.2823 95.5566C67.9422 95.5623 67.5284 95.6364 67.0405 95.7225C66.7977 95.7717 66.5294 95.7915 66.2555 95.8725C65.9804 95.9489 65.6878 96.0298 65.3782 96.1158C64.1568 96.5013 62.6857 97.1137 61.2045 98.1863C59.7273 99.2504 58.2494 100.772 57.0976 102.758C56.492 103.734 56.0528 104.861 55.6583 106.045C55.3374 107.251 55.0532 108.532 55.0317 109.882C54.9717 110.554 55.0396 111.238 55.0679 111.933C55.0861 112.281 55.1608 112.625 55.2055 112.975C55.253 113.326 55.3045 113.678 55.4042 114.024C55.6905 115.431 56.2639 116.81 56.9889 118.132C58.4385 120.785 60.8745 123.071 63.8828 124.396C65.3878 125.06 67.0519 125.418 68.7442 125.488C70.4382 125.595 72.1736 125.323 73.8184 124.758L74.3159 124.575L74.3816 124.551L74.441 124.581C76.8765 125.818 79.265 127.03 81.5794 128.205L81.3671 128.386C80.6047 126.02 79.8661 123.727 79.1569 121.526L79.1297 121.441L79.1926 121.378C80.9919 119.577 82.2456 117.388 82.9406 115.147C83.6374 112.899 83.7562 110.611 83.4845 108.513C83.2129 106.411 82.5257 104.499 81.6094 102.891C80.6936 101.278 79.5548 99.9675 78.386 98.9441C77.2036 97.9282 75.9777 97.2399 74.8791 96.713C73.7539 96.2421 72.7509 95.9404 71.9172 95.7796C71.5006 95.7083 71.1299 95.6455 70.8067 95.5906C70.4864 95.568 70.2135 95.5493 69.9877 95.5334C69.7772 95.517 69.6113 95.5046 69.4857 95.4949C69.373 95.4831 69.3153 95.4757 69.3153 95.4712C69.3153 95.4672 69.373 95.4661 69.4862 95.4678C69.6119 95.4712 69.7783 95.4763 69.99 95.4819C70.2169 95.491 70.492 95.5023 70.8146 95.5153C71.1406 95.564 71.5148 95.6195 71.9353 95.6823C72.7775 95.8294 73.7935 96.1187 74.9362 96.5817C76.0513 97.1007 77.2987 97.7855 78.5043 98.8043C79.6963 99.8299 80.8594 101.15 81.7984 102.781C82.7374 104.407 83.4461 106.345 83.7313 108.479C84.0166 110.608 83.9045 112.936 83.2027 115.225C82.5025 117.508 81.2313 119.742 79.3997 121.582L79.4354 121.435C80.1474 123.634 80.89 125.927 81.6558 128.292L81.7679 128.638L81.4436 128.473C79.128 127.3 76.7395 126.089 74.3029 124.853L74.428 124.86L73.9197 125.046C72.2381 125.625 70.4631 125.902 68.7318 125.792C67.0026 125.72 65.3012 125.351 63.7645 124.671C60.6917 123.314 58.2132 120.976 56.7433 118.269C56.0075 116.921 55.4296 115.514 55.1415 114.082C55.0419 113.73 54.991 113.371 54.9434 113.015C54.8993 112.659 54.8251 112.308 54.8076 111.955C54.781 111.248 54.7148 110.553 54.7787 109.87C54.8065 108.498 55.1002 107.198 55.433 105.976C55.8394 104.775 56.2922 103.634 56.912 102.647C58.0921 100.641 59.601 99.11 61.106 98.0465C62.6144 96.9745 64.1081 96.3722 65.3454 96.0009C65.6584 95.9194 65.955 95.8419 66.2334 95.7694C66.5102 95.6925 66.7813 95.6766 67.0264 95.6325C67.5194 95.5549 67.936 95.4904 68.2784 95.4949C68.6078 95.4836 68.8648 95.4757 69.0532 95.4689C69.2264 95.4655 69.3153 95.4661 69.3153 95.4712Z" fill="#E8505B"/>
<path d="M72.5432 108.687H71.4972L69.2145 105.505V103.417C69.2145 103.417 67.598 103.318 67.7876 106.052C67.9778 108.786 67.7724 108.09 67.7724 108.09C67.7724 108.09 64.3396 108.103 64.0543 108.401C63.8466 108.618 63.7532 112.028 63.717 113.877C63.6989 114.809 64.27 115.675 65.1359 115.895C65.2588 115.926 65.3833 115.945 65.5055 115.945C66.3619 115.945 70.7365 115.248 70.7365 115.248H72.5432V108.687Z" fill="#E8505B"/>
<path d="M75.5371 108.113L74.8942 115.268H73.1028V108.258L75.5371 108.113Z" fill="#E8505B"/>
<path d="M96.8708 253.761V248.918L88.1935 248.86L88.1216 256.176L88.6593 256.216C91.0529 256.37 100.84 256.596 102.444 256.099C104.233 255.546 96.8708 253.761 96.8708 253.761Z" fill="#E8505B"/>
<path d="M102.649 255.645C102.649 255.727 99.403 255.793 95.4002 255.793C91.3958 255.793 88.1509 255.727 88.1509 255.645C88.1509 255.564 91.3958 255.498 95.4002 255.498C99.403 255.499 102.649 255.564 102.649 255.645Z" fill="#263238"/>
<path d="M97.0231 254.749C96.9518 254.712 97.0129 254.456 97.1991 254.204C97.3848 253.951 97.6117 253.816 97.6683 253.873C97.7266 253.931 97.6078 254.144 97.4363 254.379C97.2648 254.611 97.0961 254.788 97.0231 254.749Z" fill="#263238"/>
<path d="M97.5766 255.068C97.5013 255.04 97.5404 254.753 97.7108 254.452C97.8806 254.149 98.1064 253.968 98.1692 254.017C98.2343 254.068 98.1251 254.315 97.9672 254.596C97.8093 254.877 97.6542 255.098 97.5766 255.068Z" fill="#263238"/>
<path d="M90.7656 255.624C90.7316 255.647 90.6026 255.52 90.4146 255.307C90.2256 255.096 89.9783 254.797 89.6534 254.545C89.3313 254.294 88.9764 254.167 88.7144 254.135C88.4506 254.099 88.2774 254.14 88.2627 254.098C88.2474 254.066 88.4087 253.945 88.7217 253.926C89.0296 253.905 89.4649 254.023 89.8334 254.311C90.1996 254.597 90.4339 254.938 90.5827 255.185C90.731 255.434 90.7978 255.601 90.7656 255.624Z" fill="#263238"/>
<path d="M97.0498 253.839C97.0922 253.908 96.9434 254.076 96.6955 254.166C96.4481 254.258 96.2251 254.226 96.2138 254.146C96.2008 254.065 96.3768 253.97 96.5936 253.89C96.8109 253.81 97.0068 253.769 97.0498 253.839Z" fill="#263238"/>
<path d="M96.9139 253.371C96.9218 253.453 96.6903 253.522 96.3977 253.526C96.1045 253.529 95.8713 253.467 95.8776 253.385C95.8832 253.304 96.1142 253.235 96.3938 253.231C96.6728 253.227 96.906 253.29 96.9139 253.371Z" fill="#263238"/>
<path d="M118.238 253.761L118.238 248.918L109.561 248.86L109.489 256.101L110.027 256.141C112.421 256.296 122.208 256.596 123.812 256.099C125.6 255.546 118.238 253.761 118.238 253.761Z" fill="#E8505B"/>
<path d="M124.017 255.657C124.017 255.737 120.771 255.804 116.768 255.804C112.763 255.804 109.519 255.738 109.519 255.657C109.519 255.575 112.763 255.509 116.768 255.509C120.771 255.509 124.017 255.575 124.017 255.657Z" fill="#263238"/>
<path d="M118.391 254.749C118.319 254.712 118.381 254.456 118.567 254.204C118.753 253.951 118.98 253.816 119.037 253.873C119.095 253.931 118.976 254.144 118.804 254.379C118.632 254.611 118.463 254.788 118.391 254.749Z" fill="#263238"/>
<path d="M118.944 255.068C118.869 255.04 118.908 254.753 119.078 254.452C119.248 254.149 119.474 253.968 119.537 254.017C119.602 254.068 119.493 254.315 119.335 254.596C119.177 254.877 119.021 255.098 118.944 255.068Z" fill="#263238"/>
<path d="M112.133 255.624C112.099 255.647 111.97 255.52 111.782 255.307C111.593 255.096 111.345 254.797 111.02 254.545C110.698 254.294 110.344 254.167 110.081 254.135C109.818 254.099 109.644 254.14 109.63 254.098C109.614 254.066 109.776 253.945 110.088 253.926C110.396 253.905 110.832 254.023 111.2 254.311C111.567 254.597 111.8 254.938 111.949 255.185C112.099 255.434 112.165 255.601 112.133 255.624Z" fill="#263238"/>
<path d="M118.417 253.839C118.46 253.908 118.311 254.076 118.064 254.166C117.816 254.258 117.593 254.226 117.581 254.146C117.568 254.065 117.745 253.97 117.961 253.89C118.179 253.81 118.374 253.769 118.417 253.839Z" fill="#263238"/>
<path d="M118.281 253.371C118.289 253.453 118.057 253.522 117.765 253.526C117.471 253.529 117.239 253.467 117.244 253.385C117.25 253.304 117.482 253.235 117.761 253.231C118.04 253.227 118.273 253.29 118.281 253.371Z" fill="#263238"/>
<path d="M150.204 110.056C149.977 109.823 149.42 109.932 149.42 109.932C149.42 109.932 149.518 109.271 149.415 108.951C149.312 108.631 148.599 108.693 148.599 108.693C148.599 108.693 148.555 108.385 148.617 107.888C148.633 107.764 148.564 107.672 148.451 107.603C148.113 107.399 147.385 107.409 147.385 107.409C146.948 107.096 148.716 104.624 149.372 103.833C150.02 103.051 149.91 102.424 149.326 102.426C148.927 102.426 146.863 104.803 146.233 105.601C145.604 106.398 143.915 108.618 143.858 106.847C143.8 105.076 143.088 103.736 142.644 103.508C142.199 103.28 141.719 103.815 141.965 104.307C142.164 104.704 142.29 105.47 142.361 106.049C142.42 106.527 142.4 107.011 142.296 107.481C142.001 108.807 141.683 109.669 141.534 110.037L141.491 110.013C141.491 110.013 129.137 121.859 128.246 122.704C127.445 123.465 111.392 121.804 108.176 121.463C107.297 121.365 105.995 121.188 104.867 121.238C103.472 121.299 103.224 121.497 101.828 121.516C97.5521 121.573 93.9891 121.989 91.3374 122.438C88.1316 122.98 85.5031 125.262 84.5109 128.359C81.2649 138.488 73.9216 162.47 72.613 175.943C71.5823 177.881 70.4305 180.145 69.9624 181.418C69.0529 183.895 69.2736 183.979 69.5804 184.036C70.4033 184.188 71.3452 179.741 71.6967 180.814C72.0487 181.888 69.9126 186.119 70.7792 186.243C71.9089 186.405 72.8094 181.731 72.9147 181.341C73.0171 180.963 73.5871 181.091 73.4733 181.438C73.3092 181.936 71.7165 187.217 72.8247 187.386C73.4388 187.48 73.505 186.361 73.505 186.361C73.505 186.361 74.6314 181.311 75.1515 181.408C75.6802 181.507 75.1187 184.494 74.8578 185.488C74.6002 186.47 74.963 186.992 75.4928 186.745C75.8539 186.577 76.7239 183.551 76.9582 182.562C77.1931 181.573 77.7879 178.849 78.5871 180.431C79.3863 182.012 80.5959 182.927 81.0957 182.946C81.5949 182.966 81.8043 182.278 81.3736 181.936C81.0255 181.659 80.5885 181.018 80.2795 180.523C80.0248 180.115 79.838 179.667 79.735 179.197C79.3371 177.386 79.3405 176.333 79.3405 176.333L79.2482 175.751C80.5155 169.472 84.169 151.052 89.417 139.284L91.578 143.731L92.5158 147.022L86.7568 161.251L111.329 160.927L107.665 146.812L112.116 132.093H112.115C116.932 132.201 129.303 132.38 131.382 131.451C133.974 130.293 147.387 113.384 147.387 113.384H147.387C148.293 112.662 149.214 111.886 149.894 111.209C149.895 111.208 150.695 110.561 150.204 110.056Z" fill="#FFBE9D"/>
<path d="M85.6879 150.775C86.3993 148.342 90.0625 136.31 90.0625 136.31C90.0625 136.31 91.8601 146.119 91.3875 147.3C90.843 148.662 89.8423 150.219 89.8423 150.219C85.6879 156.547 86.2329 159.709 86.2329 159.709L111.329 158.944C111.39 155.434 109.313 147.274 108.879 145.974C108.444 144.674 109.885 140.406 109.885 140.406C109.885 140.406 112.721 137.526 112.611 136.044C112.39 133.058 112.117 132.093 112.117 132.093L127.387 132.655L126.907 122.293L104.956 120.097C104.197 122.258 97.2841 121.199 97.2841 121.199C89.8214 121.444 89.3697 122.817 86.2573 125.226C83.1454 127.636 78.0203 148.33 78.0203 148.33L85.6879 150.775Z" fill="#E8505B"/>
<path d="M100.53 148.328C100.529 148.367 100.025 148.4 99.2072 148.394C98.3905 148.389 97.2613 148.338 96.0207 148.214C94.7794 148.089 93.6633 147.914 92.8612 147.756C92.0598 147.599 91.5713 147.466 91.5787 147.427C91.5866 147.386 92.0875 147.446 92.8946 147.551C93.7018 147.655 94.8156 147.797 96.0501 147.921C97.284 148.045 98.4035 148.128 99.2152 148.186C100.027 148.245 100.531 148.285 100.53 148.328Z" fill="#263238"/>
<path d="M102.248 146.193C102.259 146.229 101.741 146.426 100.878 146.66C100.015 146.894 98.8032 147.153 97.447 147.315C96.0903 147.475 94.8514 147.508 93.9576 147.482C93.0634 147.457 92.5143 147.386 92.5166 147.349C92.5183 147.305 93.0696 147.301 93.9571 147.274C94.8446 147.246 96.0683 147.181 97.4119 147.022C98.7545 146.862 99.9601 146.638 100.829 146.458C101.699 146.276 102.236 146.151 102.248 146.193Z" fill="#263238"/>
<path d="M110.69 136.673C110.729 136.681 110.664 137.17 110.518 137.953C110.372 138.736 110.143 139.811 109.854 140.991C109.564 142.171 109.27 143.231 109.038 143.992C108.805 144.754 108.636 145.218 108.597 145.207C108.558 145.195 108.656 144.713 108.836 143.938C109.05 143.055 109.296 142.041 109.567 140.921C109.845 139.803 110.096 138.791 110.315 137.908C110.513 137.137 110.65 136.664 110.69 136.673Z" fill="#263238"/>
<path d="M85.9508 149.333C85.9293 149.412 84.1985 149.009 82.0851 148.432C79.9711 147.854 78.2753 147.324 78.2968 147.245C78.3183 147.166 80.0486 147.57 82.1626 148.147C84.2761 148.724 85.9724 149.255 85.9508 149.333Z" fill="#263238"/>
<path d="M112.393 131.96C112.393 131.974 112.161 131.998 111.744 131.957C111.329 131.914 110.721 131.817 110.018 131.545C109.314 131.281 108.513 130.841 107.766 130.174C107.018 129.51 106.35 128.596 105.923 127.521C105.49 126.447 105.348 125.328 105.416 124.331C105.482 123.336 105.746 122.437 106.191 121.807C106.632 121.168 107.217 120.859 107.624 120.752C107.83 120.697 107.996 120.684 108.107 120.687C108.219 120.69 108.276 120.702 108.276 120.711C108.277 120.739 108.041 120.726 107.658 120.861C107.282 120.996 106.754 121.314 106.364 121.923C105.594 123.134 105.379 125.346 106.198 127.413C106.608 128.446 107.239 129.324 107.949 129.973C108.658 130.626 109.421 131.071 110.096 131.352C111.456 131.916 112.404 131.897 112.393 131.96Z" fill="#263238"/>
<path d="M125.586 132.448C125.505 132.448 125.444 130.113 125.449 127.232C125.455 124.351 125.526 122.017 125.607 122.017C125.688 122.017 125.749 124.352 125.744 127.233C125.739 130.113 125.668 132.449 125.586 132.448Z" fill="#263238"/>
<path d="M104.822 120.728C104.884 119.465 105.016 118.038 105.016 118.038C105.016 118.038 108.139 117.693 108.329 114.467C108.518 111.24 108.329 103.8 108.329 103.8L102.64 100.903L96.3823 105.841L97.3304 121.973L103.088 122.339C103.996 122.397 104.776 121.674 104.822 120.728Z" fill="#FFBE9D"/>
<path d="M105.385 111.915C105.394 111.917 105.394 111.975 105.335 112.053C105.278 112.129 105.151 112.215 104.976 112.212C104.613 112.194 104.264 111.794 104.136 111.304C104.071 111.056 104.072 110.804 104.121 110.587C104.159 110.374 104.283 110.159 104.46 110.101C104.545 110.069 104.633 110.073 104.701 110.107C104.767 110.14 104.808 110.191 104.829 110.237C104.871 110.333 104.838 110.392 104.83 110.387C104.817 110.386 104.82 110.333 104.773 110.273C104.728 110.211 104.622 110.155 104.504 110.216C104.384 110.27 104.302 110.424 104.271 110.62C104.236 110.815 104.24 111.038 104.297 111.26C104.41 111.698 104.714 112.057 104.984 112.089C105.118 112.106 105.229 112.054 105.289 112.006C105.351 111.955 105.373 111.909 105.385 111.915Z" fill="#EB996E"/>
<path d="M110.269 102.058C109.834 100.573 108.255 99.8351 106.816 99.4275C104.627 98.8072 102.256 98.5327 100.118 99.32C97.9796 100.107 95.4077 101.492 95.4083 103.855C94.1461 103.751 93.425 104.857 92.9241 106.227C92.6281 107.036 92.4334 107.937 92.3876 108.83L92.3666 108.823C92.2042 111.915 91.3427 116.175 89.338 118.463C88.2309 119.725 86.637 120.598 85.9918 122.171C85.4309 123.537 85.7212 125.153 85.1909 126.533C84.7228 127.751 83.6864 128.616 82.9433 129.675C81.3251 131.983 81.2147 135.244 82.4039 137.82C83.5931 140.396 85.9493 142.281 88.5648 143.144C91.1803 144.008 94.0295 143.913 96.6914 143.22C98.6566 142.708 100.569 141.862 102.135 140.523C103.701 139.185 104.902 137.324 105.261 135.247C105.659 132.935 105.012 130.587 104.536 128.291C103.031 121.026 103.461 120.649 105.361 113.91C105.404 113.791 105.43 113.667 105.463 113.545C105.488 113.455 105.513 113.37 105.538 113.278L105.534 113.277C105.587 113.013 105.622 112.745 105.623 112.471C105.073 112.688 104.408 112.543 103.986 112.117C103.564 111.69 103.407 111.002 103.599 110.423C103.82 109.756 104.431 109.312 105.059 109.047C105.686 108.783 106.362 108.652 106.978 108.36C108.285 107.738 109.191 106.447 109.807 105.095C110.24 104.147 110.562 103.061 110.269 102.058Z" fill="#263238"/>
<path d="M105.608 112.052C105.628 112.044 105.738 112.254 105.906 112.611C106.074 112.969 106.299 113.473 106.55 114.052L106.597 114.162L106.477 114.172C106.289 114.189 106.098 114.205 105.901 114.222C105.506 114.248 105.176 114.295 104.794 114.291C104.733 114.28 104.666 114.225 104.648 114.163C104.627 114.102 104.633 114.05 104.639 114.005C104.656 113.917 104.676 113.851 104.693 113.776L104.793 113.375C104.918 112.886 105.007 112.586 105.031 112.592C105.055 112.597 105.008 112.907 104.914 113.402L104.836 113.807C104.807 113.944 104.757 114.148 104.831 114.132C105.112 114.12 105.514 114.073 105.886 114.046C106.083 114.03 106.274 114.015 106.462 114L106.39 114.12C106.148 113.537 105.942 113.024 105.802 112.655C105.663 112.286 105.588 112.061 105.608 112.052Z" fill="#E8505B"/>
<path d="M86.233 159.709L111.329 158.944L122.245 201.586L120.234 250.499H106.951L108.597 202.627L98.8888 172.943L100.385 252.395L86.9739 252.594L85.5612 177.911C85.5023 175.835 84.8191 171.152 85.0733 169.093L86.233 159.709Z" fill="#263238"/>
<path d="M102.232 173.545C102.226 173.584 101.756 173.561 101 173.472C100.245 173.383 99.2068 173.224 98.0692 172.996C96.9315 172.766 95.9122 172.512 95.1814 172.301C94.4507 172.091 94.0076 171.932 94.0178 171.892C94.0404 171.81 95.8623 172.252 98.1275 172.706C100.391 173.164 102.242 173.461 102.232 173.545Z" fill="#455A64"/>
<path d="M120.114 247.816C120.114 247.898 117.106 247.963 113.398 247.963C109.688 247.963 106.681 247.898 106.681 247.816C106.681 247.735 109.688 247.669 113.398 247.669C117.106 247.669 120.114 247.735 120.114 247.816Z" fill="#455A64"/>
<path d="M100.265 250.331C100.265 250.413 97.3474 250.479 93.7488 250.479C90.1496 250.479 87.2324 250.413 87.2324 250.331C87.2324 250.25 90.1496 250.184 93.7488 250.184C97.3474 250.184 100.265 250.25 100.265 250.331Z" fill="#455A64"/>
<path d="M98.5373 250.127C98.4558 250.128 98.1032 232.767 97.7494 211.355C97.3957 189.934 97.1749 172.574 97.2564 172.573C97.3379 172.572 97.6906 189.929 98.0443 211.349C98.3981 232.762 98.6188 250.126 98.5373 250.127Z" fill="#455A64"/>
<path d="M118.33 247.816C118.325 247.816 118.323 247.737 118.323 247.585C118.326 247.418 118.331 247.194 118.336 246.907C118.353 246.295 118.379 245.42 118.411 244.301C118.49 242.023 118.604 238.752 118.744 234.718C119.054 226.615 119.481 215.444 119.953 203.107C119.957 202.993 119.962 202.879 119.966 202.774L119.971 202.816C116.996 190.906 114.308 180.14 112.358 172.335C111.402 168.447 110.627 165.297 110.087 163.102C109.828 162.023 109.626 161.179 109.484 160.589C109.421 160.313 109.372 160.096 109.335 159.935C109.303 159.786 109.288 159.71 109.293 159.709C109.298 159.708 109.322 159.782 109.364 159.928C109.407 160.087 109.466 160.302 109.541 160.576C109.696 161.163 109.916 162.002 110.198 163.075C110.759 165.264 111.565 168.406 112.559 172.285C114.53 180.085 117.249 190.843 120.256 202.745L120.261 202.765L120.26 202.786C120.256 202.891 120.251 203.005 120.247 203.119C119.742 215.455 119.284 226.623 118.952 234.726C118.772 238.759 118.627 242.027 118.526 244.305C118.469 245.424 118.425 246.298 118.395 246.91C118.377 247.196 118.364 247.42 118.353 247.587C118.343 247.739 118.335 247.816 118.33 247.816Z" fill="#455A64"/>
<path d="M114 201.779C114.014 201.859 112.7 202.151 111.066 202.432C109.845 202.642 108.791 202.786 108.331 202.812L108.331 202.697C108.483 202.739 108.565 202.772 108.562 202.792C108.559 202.813 108.47 202.819 108.312 202.812L107.969 202.797L108.312 202.697C108.755 202.567 109.796 202.352 111.016 202.142C112.65 201.861 113.986 201.698 114 201.779Z" fill="#455A64"/>
<path d="M113.746 203.406C113.735 203.488 112.556 203.397 111.104 203.286C109.652 203.171 108.473 203.079 108.475 202.995C108.477 202.915 109.666 202.876 111.127 202.991C112.588 203.104 113.757 203.327 113.746 203.406Z" fill="#455A64"/>
<path opacity="0.2" d="M86.1216 160.61C86.7283 161.464 87.5937 161.763 88.5995 161.928C89.6047 162.093 90.6309 161.983 91.6429 161.87C98.1208 161.152 104.985 160.489 111.33 158.943C103.117 159.403 94.4452 159.248 86.2331 159.708C86.2331 159.708 86.1629 160.273 86.1465 160.409" fill="black"/>
<g opacity="0.2">
<path d="M94.5864 172.185L99.2129 190.146L98.8892 172.942L94.5864 172.185Z" fill="black"/>
</g>
</svg>
