<svg width="393" height="221" viewBox="0 0 393 221" fill="none" xmlns="http://www.w3.org/2000/svg">
<g clip-path="url(#clip0_38_517)">
<mask id="mask0_38_517" style="mask-type:luminance" maskUnits="userSpaceOnUse" x="0" y="0" width="393" height="222">
<path d="M393 0H0V221.097H393V0Z" fill="white"/>
</mask>
<g mask="url(#mask0_38_517)">
<path d="M10.7786 -8.65417L-3.95569 6.08008L-0.828934 9.20683L13.9053 -5.52741L10.7786 -8.65417Z" fill="#E8E8E8"/>
<path d="M370.614 9.20672L382.222 -2.40088L393.829 9.20672L396.956 6.08013L385.348 -5.52746L382.222 -8.65405L379.095 -5.52746L367.487 6.08013L370.614 9.20672Z" fill="#E8E8E8"/>
<path d="M33.9937 14.5611L22.3861 2.95354L19.2595 6.08013L30.8671 17.6877L33.9937 20.8143L42.4747 29.2953L45.6013 32.4219L48.7282 29.2953L57.2089 20.8143L65.6899 29.2953L57.2089 37.7763L54.0823 40.9029L45.6013 49.3839L37.1206 40.9029L33.9937 37.7763L30.8671 40.9029L22.3861 49.3839L19.2595 52.5105L22.3861 55.6371L30.8671 64.1181L19.2595 75.7257L22.3861 78.8523L33.9937 67.2447L37.1206 64.1181L45.6013 55.6371L48.7282 52.5105L57.2089 44.0295L65.6899 52.5105L57.2089 60.9915L54.0823 64.1181L42.4747 75.7257L45.6013 78.8523L57.2089 67.2447L60.3358 64.1181L68.8165 55.6371L71.9434 52.5105L68.8165 49.3839L60.3358 40.9029L68.8165 32.4219L80.4241 44.0295L83.5509 40.9029L71.9434 29.2953L80.4241 20.8143L83.5509 17.6877L92.0317 9.20672L95.1585 6.08013L103.639 -2.40088L112.12 6.08013L103.639 14.5611L100.513 17.6877L88.9051 29.2953L92.0317 32.4219L103.639 20.8143L106.766 17.6877L115.247 9.20672L118.374 6.08013L115.247 2.95354L106.766 -5.52746L103.639 -8.65405L100.513 -5.52746L92.0317 2.95354L88.9051 6.08013L80.4241 14.5611L71.9434 6.08013L68.8165 2.95354L65.6899 6.08013L57.2089 14.5611L54.0823 17.6877L45.6013 26.1687L37.1206 17.6877L45.6013 9.20672L48.7282 6.08013L45.6013 2.95354L33.9937 -8.65405L30.8671 -5.52746L42.4747 6.08013L33.9937 14.5611ZM33.9937 60.9915L25.513 52.5105L33.9937 44.0295L42.4747 52.5105L33.9937 60.9915ZM68.8165 9.20672L77.2975 17.6877L68.8165 26.1687L60.3358 17.6877L68.8165 9.20672Z" fill="#E8E8E8"/>
<path d="M42.4747 17.6877L45.6013 20.8143L57.2089 9.20672L60.3358 6.08013L68.8165 -2.40088L77.2975 6.08013L80.4241 9.20672L83.551 6.08013L95.1586 -5.52746L92.0317 -8.65405L80.4241 2.95354L71.9434 -5.52746L68.8165 -8.65405L65.6899 -5.52746L57.2089 2.95354L45.6013 -8.65405L42.4747 -5.52746L54.0823 6.08013L42.4747 17.6877Z" fill="#E8E8E8"/>
<path d="M150.07 14.5611L141.589 6.08013L138.462 2.95354L135.336 6.08013L126.855 14.5611L123.728 17.6877L112.12 29.2953L115.247 32.4219L126.855 20.8143L129.981 17.6877L138.462 9.20672L146.943 17.6877L135.336 29.2953L138.462 32.4219L150.07 20.8143L164.804 6.08013L176.412 -5.52746L173.285 -8.65405L158.551 6.08013L150.07 14.5611Z" fill="#E8E8E8"/>
<path d="M181.766 6.08013L170.158 17.6877L158.551 29.2953L161.677 32.4219L176.411 17.6877L184.892 9.20672L188.019 6.08013L199.627 -5.52746L196.5 -8.65405L184.892 2.95354L181.766 6.08013Z" fill="#E8E8E8"/>
<path d="M263.019 17.6877L266.146 20.8143L277.753 9.20672L280.88 6.08013L277.753 2.95354L266.146 -8.65405L263.019 -5.52746L274.626 6.08013L263.019 17.6877Z" fill="#E8E8E8"/>
<path d="M297.842 6.08013L289.361 14.5611L286.234 17.6877L277.753 26.1687L274.626 29.2953L266.146 37.7763L263.019 40.9029L254.538 49.3839L246.057 40.9029L254.538 32.4219L257.665 29.2953L254.538 26.1687L246.057 17.6877L257.665 6.08013L254.538 2.95354L242.93 14.5611L239.804 17.6877L242.93 20.8143L251.411 29.2953L242.93 37.7763L234.449 29.2953L231.323 26.1687L222.842 17.6877L219.715 14.5611L216.588 17.6877L208.108 26.1687L204.981 29.2953L208.108 32.4219L216.588 40.9029L219.715 44.0295L231.323 55.6371L234.449 52.5105L222.842 40.9029L219.715 37.7763L211.234 29.2953L219.715 20.8143L228.196 29.2953L231.323 32.4219L239.804 40.9029L242.93 44.0295L251.411 52.5105L239.804 64.1181L242.93 67.2447L254.538 55.6371L263.019 64.1181L251.411 75.7257L254.538 78.8523L266.146 67.2447L269.272 64.1181L266.146 60.9915L257.665 52.5105L266.146 44.0295L269.272 40.9029L277.753 32.4219L280.88 29.2953L289.361 20.8143L292.487 17.6877L300.968 9.20672L304.095 6.08013L315.703 -5.52746L312.576 -8.65405L300.968 2.95354L297.842 6.08013Z" fill="#E8E8E8"/>
<path d="M347.399 9.20672L359.006 20.8143L362.133 17.6877L350.525 6.08013L347.399 2.95354L335.791 -8.65405L332.664 -5.52746L344.272 6.08013L347.399 9.20672Z" fill="#E8E8E8"/>
<path d="M382.221 2.95354L379.095 6.08013L370.614 14.5611L362.133 6.08013L373.74 -5.52746L370.614 -8.65405L359.006 2.95354L347.399 -8.65405L344.272 -5.52746L355.879 6.08013L359.006 9.20672L367.487 17.6877L359.006 26.1687L350.525 17.6877L347.399 14.5611L338.918 6.08013L335.791 2.95354L327.31 -5.52746L324.183 -8.65405L321.057 -5.52746L312.576 2.95354L309.449 6.08013L300.968 14.5611L297.841 17.6877L289.361 26.1687L286.234 29.2953L277.753 37.7763L274.626 40.9029L266.146 49.3839L263.019 52.5105L266.146 55.6371L274.626 64.1181L266.146 72.5991L263.019 75.7257L254.538 84.2067L246.057 75.7257L257.664 64.1181L254.538 60.9915L242.93 72.5991L234.449 64.1181L242.93 55.6371L246.057 52.5105L242.93 49.3839L234.449 40.9029L231.323 37.7763L219.715 26.1687L216.588 29.2953L228.196 40.9029L231.323 44.0295L239.803 52.5105L231.323 60.9915L222.842 52.5105L219.715 49.3839L211.234 40.9029L208.108 37.7763L199.627 29.2953L208.108 20.8143L211.234 17.6877L219.715 9.20672L228.196 17.6877L231.323 20.8143L242.93 32.4219L246.057 29.2953L234.449 17.6877L242.93 9.20672L246.057 6.08013L254.538 -2.40088L263.019 6.08013L254.538 14.5611L251.411 17.6877L254.538 20.8143L263.019 29.2953L251.411 40.9029L254.538 44.0295L266.146 32.4219L269.272 29.2953L277.753 20.8143L280.88 17.6877L289.361 9.20672L292.487 6.08013L304.095 -5.52746L300.968 -8.65405L289.361 2.95354L277.753 -8.65405L274.626 -5.52746L286.234 6.08013L277.753 14.5611L274.626 17.6877L266.146 26.1687L257.664 17.6877L266.146 9.20672L269.272 6.08013L266.146 2.95354L257.664 -5.52746L254.538 -8.65405L251.411 -5.52746L242.93 2.95354L239.803 6.08013L231.323 14.5611L222.842 6.08013L219.715 2.95354L216.588 6.08013L208.108 14.5611L204.981 17.6877L196.5 26.1687L193.373 29.2953L181.765 40.9029L184.892 44.0295L196.5 32.4219L204.981 40.9029L196.5 49.3839L193.373 52.5105L184.892 60.9915L176.411 52.5105L173.285 49.3839L170.158 52.5105L158.55 64.1181L150.07 72.5991L146.943 75.7257L138.462 84.2067L135.335 87.3333L138.462 90.4599L146.943 98.9409L135.335 110.548L138.462 113.675L150.07 102.067L153.196 98.9409L150.07 95.8143L141.589 87.3333L150.07 78.8523L164.804 64.1181L173.285 55.6374L181.765 64.1181L173.285 72.5991L170.158 75.7257L158.55 87.3333L161.677 90.4599L173.285 78.8523L181.765 87.3333L173.285 95.8143L170.158 98.9409L158.55 110.548L150.07 119.029L146.943 122.156L138.462 130.637L126.854 119.029L123.728 122.156L135.335 133.764L138.462 136.89L141.589 133.764L150.07 125.283L158.551 133.764L146.943 145.371L150.07 148.498L161.677 136.89L170.158 145.371L158.55 156.979L161.677 160.105L176.411 145.371L188.019 133.764L184.892 130.637L173.285 142.245L164.804 133.764L176.411 122.156L173.285 119.029L161.677 130.637L153.196 122.156L164.804 110.548L173.285 102.068L181.765 110.548L184.892 113.675L193.373 122.156L196.5 125.283L199.627 122.156L208.108 113.675L211.234 110.548L219.715 102.067L222.842 98.9409L219.715 95.8143L211.234 87.3333L219.715 78.8523L222.842 75.7257L231.323 67.2447L239.803 75.7257L228.196 87.3333L231.323 90.4599L242.93 78.8523L251.411 87.3333L242.93 95.8143L239.803 98.9409L228.196 110.548L231.323 113.675L242.93 102.067L251.411 110.548L242.93 119.029L239.803 122.156L231.323 130.637L228.196 133.764L219.715 142.245L211.234 133.764L222.842 122.156L219.715 119.029L208.108 130.637L204.981 133.764L193.373 145.371L196.5 148.498L208.108 136.89L216.588 145.371L208.108 153.852L204.981 156.979L208.108 160.105L216.588 168.586L208.108 177.067L204.981 180.194L208.108 183.321L216.588 191.802L219.715 194.928L222.842 191.802L231.323 183.321L239.803 191.802L231.323 200.283L228.196 203.409L231.323 206.536L239.803 215.017L242.93 218.143L251.411 226.624L254.538 229.751L257.664 226.624L266.146 218.143L274.626 226.624L277.753 229.751L280.88 226.624L289.361 218.143L292.487 215.017L300.968 206.536L304.095 203.409L300.968 200.283L292.487 191.802L289.361 188.675L280.88 180.194L292.487 168.586L289.361 165.46L277.753 177.067L274.626 180.194L277.753 183.321L286.234 191.802L277.753 200.283L269.272 191.802L266.146 188.675L263.019 191.802L254.538 200.283L246.057 191.802L257.664 180.194L254.538 177.067L242.93 188.675L234.449 180.194L242.93 171.713L246.057 168.586L254.538 160.105L257.664 156.979L269.272 145.371L266.146 142.245L254.538 153.852L246.057 145.371L257.664 133.764L254.538 130.637L242.93 142.245L234.449 133.764L242.93 125.283L246.057 122.156L254.538 113.675L257.664 110.548L254.538 107.422L246.057 98.9409L254.538 90.4599L257.664 87.3333L266.146 78.8523L269.272 75.7257L277.753 67.2447L280.88 64.1181L277.753 60.9915L269.272 52.5105L277.753 44.0295L280.88 40.9029L289.361 32.4219L297.841 40.9029L289.361 49.3839L286.234 52.5105L289.361 55.6371L297.841 64.1181L289.361 72.5991L286.234 75.7257L274.626 87.3333L277.753 90.4599L289.361 78.8523L297.841 87.3333L300.968 90.4599L309.449 98.9409L300.968 107.422L292.487 98.9409L289.361 95.8143L286.234 98.9409L277.753 107.422L266.146 95.8143L263.019 98.9409L274.626 110.548L263.019 122.156L266.146 125.283L277.753 113.675L280.88 110.548L289.361 102.067L297.841 110.548L286.234 122.156L289.361 125.283L300.968 113.675L309.449 122.156L312.576 125.283L324.183 136.89L327.31 133.764L315.702 122.156L324.183 113.675L332.664 122.156L335.791 125.283L347.399 136.89L350.525 133.764L338.918 122.156L347.399 113.675L350.525 110.548L347.399 107.422L338.918 98.9409L335.791 95.8143L332.664 98.9409L324.183 107.422L321.057 110.548L312.576 119.029L304.095 110.548L312.576 102.067L315.702 98.9409L324.183 90.4599L327.31 87.3333L324.183 84.2067L315.702 75.7257L327.31 64.1181L324.183 60.9915L312.576 72.5991L304.095 64.1181L300.968 60.9915L292.487 52.5105L300.968 44.0295L304.095 40.9029L300.968 37.7763L292.487 29.2953L300.968 20.8143L304.095 17.6877L312.576 9.20672L315.702 6.08013L324.183 -2.40088L332.664 6.08013L324.183 14.5611L321.057 17.6877L309.449 29.2953L312.576 32.4219L324.183 20.8143L327.31 17.6877L335.791 9.20672L344.272 17.6877L347.399 20.8143L355.879 29.2953L347.399 37.7763L344.272 40.9029L332.664 52.5105L335.791 55.6371L347.399 44.0295L350.525 40.9029L359.006 32.4219L367.487 40.9029L359.006 49.3839L355.879 52.5105L347.399 60.9915L344.272 64.1181L335.791 72.5991L332.664 75.7257L335.791 78.8523L344.272 87.3333L347.399 90.4599L350.525 87.3333L362.133 75.7257L359.006 72.5991L347.399 84.2067L338.918 75.7257L347.399 67.2447L350.525 64.1181L359.006 55.6371L367.487 64.1181L370.614 67.2447L379.095 75.7257L367.487 87.3333L370.614 90.4599L382.221 78.8523L390.702 87.3333L382.221 95.8143L379.095 98.9409L370.614 107.422L367.487 110.548L355.879 122.156L359.006 125.283L370.614 113.675L373.74 110.548L382.221 102.067L385.348 98.9409L393.829 90.4599L396.956 87.3333L393.829 84.2067L385.348 75.7257L382.221 72.5991L373.74 64.1181L382.221 55.6371L385.348 52.5105L382.221 49.3839L373.74 40.9029L385.348 29.2953L382.221 26.1687L370.614 37.7763L362.133 29.2953L370.614 20.8143L373.74 17.6877L382.221 9.20672L393.829 20.8143L396.956 17.6877L385.348 6.08013L382.221 2.95354ZM176.411 75.7257L184.892 67.2447L188.019 64.1181L196.5 55.6371L204.981 64.1181L196.5 72.5991L193.373 75.7257L184.892 84.2067L176.411 75.7257ZM196.5 119.029L188.019 110.548L196.5 102.067L204.981 110.548L196.5 119.029ZM216.588 98.9409L208.108 107.422L199.627 98.9409L208.108 90.4599L216.588 98.9409ZM219.715 72.5991L216.588 75.7257L208.108 84.2067L204.981 87.3333L196.5 95.8143L193.373 98.9409L184.892 107.422L176.411 98.9409L184.892 90.4599L188.019 87.3333L196.5 78.8523L199.627 75.7257L208.108 67.2447L211.234 64.1181L208.108 60.9915L199.627 52.5105L208.108 44.0295L216.588 52.5105L219.715 55.6371L228.196 64.1181L219.715 72.5991ZM254.538 223.498L246.057 215.017L254.538 206.536L263.019 215.017L254.538 223.498ZM280.88 203.409L289.361 194.928L297.841 203.409L289.361 211.89L286.234 215.017L277.753 223.498L269.272 215.017L277.753 206.536L280.88 203.409ZM266.146 194.928L274.626 203.409L266.146 211.89L257.664 203.409L266.146 194.928ZM251.411 203.409L242.93 211.89L234.449 203.409L242.93 194.928L251.411 203.409ZM219.715 188.675L211.234 180.194L219.715 171.713L228.196 180.194L219.715 188.675ZM251.411 156.979L242.93 165.46L239.803 168.586L231.323 177.067L222.842 168.586L219.715 165.46L211.234 156.979L219.715 148.498L228.196 156.979L231.323 160.105L234.449 156.979L242.93 148.498L251.411 156.979ZM239.803 145.371L231.323 153.852L222.842 145.371L231.323 136.89L239.803 145.371ZM335.791 102.067L344.272 110.548L335.791 119.029L327.31 110.548L335.791 102.067ZM321.057 87.3333L312.576 95.8143L304.095 87.3333L312.576 78.8523L321.057 87.3333ZM309.449 75.7257L300.968 84.2067L292.487 75.7257L300.968 67.2447L309.449 75.7257ZM379.095 52.5105L370.614 60.9915L362.133 52.5105L370.614 44.0295L379.095 52.5105Z" fill="#E8E8E8"/>
<path d="M396.956 29.2953L393.829 26.1688L385.348 17.6877L382.222 14.5612L379.095 17.6877L367.487 29.2953L370.614 32.4219L382.222 20.8143L390.702 29.2953L382.222 37.7763L379.095 40.9029L382.222 44.0295L390.702 52.5105L382.222 60.9915L379.095 64.1181L382.222 67.2447L393.829 78.8523L396.956 75.7257L385.348 64.1181L393.829 55.6371L396.956 52.5105L393.829 49.3839L385.348 40.9029L393.829 32.4219L396.956 29.2953Z" fill="#E8E8E8"/>
<path d="M-0.8291 55.6371L10.7785 44.0295L13.9054 40.9029L22.3861 32.4219L25.513 29.2953L22.3861 26.1688L13.9054 17.6877L10.7785 14.5612L7.65191 17.6877L-0.8291 26.1688L-3.95569 29.2953L-0.8291 32.4219L7.65191 40.9029L-3.95569 52.5105L-0.8291 55.6371ZM2.29777 29.2953L10.7785 20.8143L19.2595 29.2953L10.7785 37.7763L2.29777 29.2953Z" fill="#E8E8E8"/>
<path d="M324.181 37.7781L309.447 52.5123L312.574 55.6391L327.308 40.9048L324.181 37.7781Z" fill="#E8E8E8"/>
<path d="M208.108 49.3839L204.981 52.5105L216.588 64.1181L208.108 72.5991L204.981 75.7257L196.5 84.2067L193.373 87.3333L181.766 98.9409L184.892 102.067L196.5 90.4599L199.627 87.3333L208.108 78.8523L211.234 75.7257L219.715 67.2447L222.842 64.1181L219.715 60.9915L208.108 49.3839Z" fill="#E8E8E8"/>
<path d="M196.498 60.9923L181.764 75.7266L184.891 78.8533L199.625 64.1191L196.498 60.9923Z" fill="#E8E8E8"/>
<path d="M83.5509 87.3333L92.0316 78.8523L95.1585 75.7257L92.0316 72.5992L83.5509 64.1181L92.0316 55.6371L103.639 67.2447L106.766 64.1181L95.1585 52.5106L103.639 44.0295L112.12 52.5106L115.247 55.6371L123.728 64.1181L112.12 75.7257L115.247 78.8523L126.854 67.2447L129.981 64.1181L138.462 55.6371L141.589 52.5106L138.462 49.384L126.854 37.7764L123.728 40.903L135.335 52.5106L126.854 60.9916L118.374 52.5106L115.247 49.384L106.766 40.903L103.639 37.7764L100.513 40.903L92.0316 49.384L88.905 52.5106L80.424 60.9916L77.2974 64.1181L80.424 67.2447L88.905 75.7257L80.424 84.2067L68.8164 72.5992L65.6898 75.7257L77.2974 87.3333L68.8164 95.8143L65.6898 98.9409L57.2088 107.422L48.7281 98.9409L60.3357 87.3333L57.2088 84.2067L45.6012 95.8143L33.9937 84.2067L30.8671 87.3333L42.4747 98.9409L45.6012 102.068L54.0823 110.549L57.2088 113.675L60.3357 110.549L68.8164 102.068L71.9433 98.9409L80.424 90.4599L83.5509 87.3333Z" fill="#E8E8E8"/>
<path d="M10.7785 113.675L13.9054 110.549L2.29776 98.941L13.9054 87.3334L10.7785 84.2068L-0.8291 95.8144L-3.95569 98.941L-0.8291 102.068L10.7785 113.675Z" fill="#E8E8E8"/>
<path d="M393.829 95.8144L382.222 107.422L379.095 110.549L370.614 119.03L367.487 122.156L359.006 130.637L350.525 122.156L359.006 113.675L362.133 110.549L370.614 102.068L373.741 98.941L385.348 87.3334L382.222 84.2068L370.614 95.8144L362.133 87.3334L370.614 78.8524L373.741 75.7258L370.614 72.5992L362.133 64.1182L359.006 60.9916L355.88 64.1182L344.272 75.7258L347.399 78.8524L359.006 67.2448L367.487 75.7258L359.006 84.2068L355.88 87.3334L347.399 95.8144L338.918 87.3334L335.791 84.2068L327.31 75.7258L335.791 67.2448L338.918 64.1182L347.399 55.6372L350.525 52.5106L362.133 40.903L359.006 37.7764L347.399 49.384L344.272 52.5106L335.791 60.9916L327.31 52.5106L335.791 44.0296L338.918 40.903L347.399 32.422L350.525 29.2954L347.399 26.1688L338.918 17.6878L335.791 14.5612L332.664 17.6878L324.184 26.1688L321.057 29.2954L312.576 37.7764L304.095 29.2954L312.576 20.8144L315.703 17.6878L327.31 6.0802L324.184 2.95361L312.576 14.5612L309.449 17.6878L300.968 26.1688L297.842 29.2954L300.968 32.422L309.449 40.903L300.968 49.384L297.842 52.5106L300.968 55.6372L309.449 64.1182L312.576 67.2448L315.703 64.1182L324.184 55.6372L332.664 64.1182L324.184 72.5992L321.057 75.7258L324.184 78.8524L332.664 87.3334L324.184 95.8144L321.057 98.941L309.449 110.549L312.576 113.675L324.184 102.068L327.31 98.941L335.791 90.46L344.272 98.941L347.399 102.068L355.88 110.549L347.399 119.03L344.272 122.156L347.399 125.283L355.88 133.764L347.399 142.245L338.918 133.764L335.791 130.637L324.184 119.03L321.057 122.156L332.664 133.764L324.184 142.245L315.703 133.764L312.576 130.637L304.095 122.156L300.968 119.03L297.842 122.156L289.361 130.637L280.88 122.156L292.487 110.549L289.361 107.422L277.753 119.03L274.626 122.156L266.146 130.637L257.665 122.156L266.146 113.675L269.272 110.549L266.146 107.422L257.665 98.941L266.146 90.46L274.626 98.941L277.753 102.068L280.88 98.941L289.361 90.46L300.968 102.068L304.095 98.941L292.487 87.3334L289.361 84.2068L286.234 87.3334L277.753 95.8144L269.272 87.3334L277.753 78.8524L280.88 75.7258L289.361 67.2448L292.487 64.1182L289.361 60.9916L280.88 52.5106L292.487 40.903L289.361 37.7764L277.753 49.384L274.626 52.5106L277.753 55.6372L286.234 64.1182L277.753 72.5992L274.626 75.7258L266.146 84.2068L263.019 87.3334L254.538 95.8144L251.411 98.941L254.538 102.068L263.019 110.549L254.538 119.03L251.411 122.156L239.804 133.764L242.93 136.89L254.538 125.283L263.019 133.764L251.411 145.371L254.538 148.498L266.146 136.89L274.626 145.371L266.146 153.852L263.019 156.979L254.538 165.46L251.411 168.587L239.804 180.194L242.93 183.321L254.538 171.713L263.019 180.194L251.411 191.802L254.538 194.928L266.146 183.321L277.753 194.928L280.88 191.802L269.272 180.194L277.753 171.713L280.88 168.587L289.361 160.106L297.842 168.587L289.361 177.068L286.234 180.194L289.361 183.321L297.842 191.802L300.968 194.928L309.449 203.409L300.968 211.89L297.842 215.017L286.234 226.625L289.361 229.751L300.968 218.144L309.449 226.625L312.576 229.751L315.703 226.625L324.184 218.144L327.31 215.017L335.791 206.536L344.272 215.017L347.399 218.144L355.88 226.625L359.006 229.751L362.133 226.625L370.614 218.144L379.095 226.625L382.222 229.751L385.348 226.625L393.829 218.144L396.956 215.017L393.829 211.89L385.348 203.409L396.956 191.802L393.829 188.675L382.222 200.283L379.095 203.409L370.614 211.89L362.133 203.409L373.741 191.802L370.614 188.675L359.006 200.283L355.88 203.409L359.006 206.536L367.487 215.017L359.006 223.498L350.525 215.017L347.399 211.89L338.918 203.409L347.399 194.928L350.525 191.802L347.399 188.675L338.918 180.194L347.399 171.713L359.006 183.321L362.133 180.194L350.525 168.587L347.399 165.46L338.918 156.979L335.791 153.852L327.31 145.371L335.791 136.89L344.272 145.371L347.399 148.498L355.88 156.979L359.006 160.106L367.487 168.587L370.614 171.713L379.095 180.194L382.222 183.321L385.348 180.194L393.829 171.713L396.956 168.587L393.829 165.46L385.348 156.979L393.829 148.498L396.956 145.371L393.829 142.245L385.348 133.764L393.829 125.283L396.956 122.156L393.829 119.03L385.348 110.549L396.956 98.941L393.829 95.8144ZM335.791 20.8144L344.272 29.2954L335.791 37.7764L327.31 29.2954L335.791 20.8144ZM321.057 52.5106L312.576 60.9916L304.095 52.5106L312.576 44.0296L315.703 40.903L324.184 32.422L332.664 40.903L324.184 49.384L321.057 52.5106ZM350.525 98.941L359.006 90.46L367.487 98.941L359.006 107.422L350.525 98.941ZM382.222 206.536L390.702 215.017L382.222 223.498L373.741 215.017L382.222 206.536ZM266.146 177.068L257.665 168.587L266.146 160.106L274.626 168.587L266.146 177.068ZM286.234 156.979L277.753 165.46L269.272 156.979L277.753 148.498L280.88 145.371L277.753 142.245L269.272 133.764L277.753 125.283L286.234 133.764L289.361 136.89L297.842 145.371L289.361 153.852L286.234 156.979ZM292.487 156.979L300.968 148.498L309.449 156.979L300.968 165.46L292.487 156.979ZM332.664 156.979L335.791 160.106L344.272 168.587L335.791 177.068L332.664 180.194L335.791 183.321L344.272 191.802L335.791 200.283L332.664 203.409L324.184 211.89L321.057 215.017L312.576 223.498L304.095 215.017L312.576 206.536L315.703 203.409L312.576 200.283L304.095 191.802L300.968 188.675L292.487 180.194L300.968 171.713L304.095 168.587L312.576 160.106L315.703 156.979L312.576 153.852L304.095 145.371L300.968 142.245L292.487 133.764L300.968 125.283L309.449 133.764L312.576 136.89L321.057 145.371L324.184 148.498L332.664 156.979ZM390.702 145.371L382.222 153.852L379.095 156.979L382.222 160.106L390.702 168.587L382.222 177.068L373.741 168.587L370.614 165.46L362.133 156.979L370.614 148.498L373.741 145.371L382.222 136.89L390.702 145.371ZM390.702 122.156L382.222 130.637L379.095 133.764L370.614 142.245L367.487 145.371L359.006 153.852L350.525 145.371L359.006 136.89L362.133 133.764L370.614 125.283L373.741 122.156L382.222 113.675L390.702 122.156Z" fill="#E8E8E8"/>
<path d="M33.9928 107.421L19.2585 122.155L22.3853 125.282L37.1195 110.548L33.9928 107.421Z" fill="#E8E8E8"/>
<path d="M-0.8291 148.498L10.7785 136.89L13.9054 133.764L10.7785 130.637L-0.8291 119.03L-3.95569 122.156L7.65191 133.764L-3.95569 145.371L-0.8291 148.498Z" fill="#E8E8E8"/>
<path d="M103.639 148.498L106.766 145.371L118.374 133.764L115.247 130.637L103.639 142.245L92.0317 130.637L88.9052 133.764L100.513 145.371L103.639 148.498Z" fill="#E8E8E8"/>
<path d="M367.487 133.764L355.879 145.371L359.006 148.498L370.614 136.89L373.74 133.764L385.348 122.156L382.221 119.03L370.614 130.637L367.487 133.764Z" fill="#E8E8E8"/>
<path d="M292.487 145.371L289.361 142.245L277.753 130.637L274.626 133.764L286.234 145.371L274.626 156.979L277.753 160.105L289.361 148.498L292.487 145.371Z" fill="#E8E8E8"/>
<path d="M312.576 142.245L300.968 130.637L297.842 133.764L309.449 145.371L312.576 148.498L321.057 156.979L312.576 165.46L309.449 168.586L300.968 177.067L297.842 180.194L300.968 183.321L309.449 191.802L312.576 194.928L321.057 203.409L309.449 215.017L312.576 218.143L324.184 206.536L327.31 203.409L335.791 194.928L338.918 191.802L335.791 188.675L327.31 180.194L335.791 171.713L338.918 168.586L335.791 165.46L327.31 156.979L324.184 153.852L315.703 145.371L312.576 142.245ZM332.664 191.802L324.184 200.283L315.703 191.802L324.184 183.321L332.664 191.802ZM332.664 168.586L324.184 177.067L321.057 180.194L312.576 188.675L304.095 180.194L312.576 171.713L315.703 168.586L324.184 160.105L332.664 168.586Z" fill="#E8E8E8"/>
<path d="M115.247 153.852L103.639 165.46L92.0317 153.852L88.9052 156.979L100.513 168.586L103.639 171.713L106.766 168.586L118.374 156.979L115.247 153.852Z" fill="#E8E8E8"/>
<path d="M219.715 153.852L216.588 156.979L228.196 168.586L231.323 171.713L234.449 168.586L246.057 156.979L242.93 153.852L231.323 165.46L219.715 153.852Z" fill="#E8E8E8"/>
<path d="M367.487 156.979L370.614 160.105L382.222 171.713L385.348 168.586L373.741 156.979L385.348 145.371L382.222 142.245L370.614 153.852L367.487 156.979Z" fill="#E8E8E8"/>
<path d="M10.7773 165.459L-3.95691 180.193L-0.830155 183.32L13.9041 168.585L10.7773 165.459Z" fill="#E8E8E8"/>
<path d="M129.981 168.586L141.589 156.979L138.462 153.852L126.855 165.46L123.728 168.586L112.12 180.194L115.247 183.321L126.855 171.713L129.981 168.586Z" fill="#E8E8E8"/>
<path d="M150.067 165.46L135.333 180.194L138.46 183.321L153.194 168.586L150.067 165.46Z" fill="#E8E8E8"/>
<path d="M324.18 165.461L309.446 180.195L312.573 183.322L327.307 168.588L324.18 165.461Z" fill="#E8E8E8"/>
<path d="M10.7785 183.321L19.2595 191.802L22.3861 194.928L25.513 191.802L33.9937 183.321L37.1205 180.194L48.7281 168.586L45.6013 165.46L33.9937 177.067L30.8671 180.194L22.3861 188.675L13.9054 180.194L22.3861 171.713L25.513 168.586L22.3861 165.46L13.9054 156.979L22.3861 148.498L30.8671 156.979L33.9937 160.105L37.1205 156.979L45.6013 148.498L48.7281 145.371L57.2089 136.89L60.3357 133.764L68.8165 125.283L71.9433 122.156L83.5509 110.548L80.4241 107.422L68.8165 119.029L65.6899 122.156L57.2089 130.637L45.6013 119.029L42.4747 122.156L54.0823 133.764L45.6013 142.245L42.4747 145.371L33.9937 153.852L25.513 145.371L37.1205 133.764L33.9937 130.637L22.3861 142.245L19.2595 145.371L10.7785 153.852L7.65191 156.979L-3.95569 168.586L-0.8291 171.713L10.7785 160.105L19.2595 168.586L10.7785 177.067L7.65191 180.194L-3.95569 191.802L-0.8291 194.928L10.7785 183.321Z" fill="#E8E8E8"/>
<path d="M382.222 188.675L373.741 180.194L370.614 177.067L362.133 168.586L359.006 165.46L350.525 156.979L347.399 153.852L335.791 142.245L332.664 145.371L344.272 156.979L347.399 160.105L355.88 168.586L359.006 171.713L367.487 180.194L359.006 188.675L347.399 177.067L344.272 180.194L355.88 191.802L347.399 200.283L344.272 203.409L347.399 206.536L359.006 218.143L362.133 215.017L350.525 203.409L359.006 194.928L362.133 191.802L370.614 183.321L379.095 191.802L367.487 203.409L370.614 206.536L382.222 194.928L385.348 191.802L396.956 180.194L393.829 177.067L382.222 188.675Z" fill="#E8E8E8"/>
<path d="M158.551 203.409L161.677 206.536L164.804 203.409L176.411 191.802L173.285 188.675L161.677 200.282L150.07 188.675L146.943 191.802L158.551 203.409Z" fill="#E8E8E8"/>
<path d="M141.589 203.409L138.462 200.283L126.855 211.89L118.374 203.409L115.247 200.283L103.639 188.675L100.513 191.802L112.12 203.409L103.639 211.89L100.513 215.017L88.9052 226.624L92.0317 229.751L103.639 218.143L106.766 215.017L115.247 206.536L123.728 215.017L112.12 226.624L115.247 229.751L126.855 218.143L138.462 229.751L141.589 226.624L129.981 215.017L141.589 203.409Z" fill="#E8E8E8"/>
<path d="M184.892 206.536L196.5 218.143L199.627 215.017L188.019 203.409L196.5 194.928L204.981 203.409L208.108 206.536L219.715 218.143L222.842 215.017L211.234 203.409L208.108 200.283L199.627 191.802L196.5 188.675L188.019 180.194L199.627 168.586L196.5 165.46L184.892 177.067L176.411 168.586L188.019 156.979L184.892 153.852L173.285 165.46L170.158 168.586L158.551 180.194L161.677 183.321L173.285 171.713L181.766 180.194L184.892 183.321L193.373 191.802L184.892 200.283L181.766 203.409L170.158 215.017L158.551 226.624L161.677 229.751L176.411 215.017L184.892 206.536Z" fill="#E8E8E8"/>
<path d="M289.357 200.283L274.623 215.017L277.75 218.144L292.484 203.41L289.357 200.283Z" fill="#E8E8E8"/>
<path d="M10.779 211.89L2.29825 203.409L10.779 194.928L19.26 203.409L22.3866 206.536L25.5134 203.409L33.9942 194.928L37.121 191.802L45.6018 183.321L48.7286 180.194L57.2094 171.713L60.3362 168.587L57.2094 165.46L48.7286 156.979L57.2094 148.498L65.6904 156.979L68.817 160.106L77.298 168.587L68.817 177.068L65.6904 180.194L57.2094 188.675L54.0828 191.802L45.6018 200.283L42.4752 203.409L30.8676 215.017L33.9942 218.144L45.6018 206.536L48.7286 203.409L57.2094 194.928L60.3362 191.802L68.817 183.321L71.9438 180.194L80.4246 171.713L92.0322 183.321L95.159 180.194L83.5514 168.587L80.4246 165.46L71.9438 156.979L68.817 153.852L60.3362 145.371L68.817 136.89L71.9438 133.764L80.4246 125.283L83.5514 122.156L92.0322 113.675L95.159 110.549L103.64 102.068L112.121 110.549L100.513 122.156L103.64 125.283L115.247 113.675L118.374 110.549L129.982 98.941L126.855 95.8144L115.247 107.422L106.767 98.941L115.247 90.46L118.374 87.3334L126.855 78.8524L129.982 75.7258L138.463 67.2448L141.589 64.1182L150.07 55.6372L164.805 40.903L176.412 29.2954L184.893 20.8144L188.02 17.6878L196.501 9.20684L199.627 6.08025L211.235 -5.52734L208.108 -8.65393L196.501 2.95366L193.374 6.08025L184.893 14.5613L181.766 17.6878L170.158 29.2954L161.678 37.7762L153.197 29.2954L164.805 17.6878L176.412 6.08025L188.02 -5.52734L184.893 -8.65393L170.158 6.08025L158.551 17.6878L150.07 26.1689L146.944 29.2954L138.463 37.7764L129.982 29.2954L141.589 17.6878L138.463 14.5613L126.855 26.1689L123.728 29.2954L115.247 37.7764L106.767 29.2954L115.247 20.8144L118.374 17.6878L126.855 9.20684L129.982 6.08025L138.463 -2.40075L146.944 6.08025L150.07 9.20684L164.805 -5.52734L161.678 -8.65393L150.07 2.95366L141.589 -5.52734L138.463 -8.65393L135.336 -5.52734L126.855 2.95366L115.247 -8.65393L112.121 -5.52734L123.728 6.08025L115.247 14.5613L112.121 17.6878L103.64 26.1689L100.513 29.2954L92.0322 37.7764L83.5514 29.2954L92.0322 20.8144L95.159 17.6878L106.767 6.08025L103.64 2.95366L92.0322 14.5613L88.9056 17.6878L80.4246 26.1689L77.298 29.2954L80.4246 32.422L88.9056 40.903L80.4246 49.384L68.817 37.7764L65.6904 40.903L77.298 52.5106L68.817 60.9916L65.6904 64.1182L57.2094 72.5992L54.0828 75.7258L45.6018 84.2068L37.121 75.7258L45.6018 67.2448L48.7286 64.1182L60.3362 52.5106L57.2094 49.384L45.6018 60.9916L42.4752 64.1182L33.9942 72.5992L30.8676 75.7258L22.3866 84.2068L13.9058 75.7258L22.3866 67.2448L25.5134 64.1182L22.3866 60.9916L13.9058 52.5106L22.3866 44.0296L25.5134 40.903L33.9942 32.422L42.4752 40.903L45.6018 44.0296L48.7286 40.903L60.3362 29.2954L57.2094 26.1689L45.6018 37.7764L37.121 29.2954L33.9942 26.1689L25.5134 17.6878L22.3866 14.5613L13.9058 6.08025L22.3866 -2.40075L33.9942 9.20684L37.121 6.08025L25.5134 -5.52734L22.3866 -8.65393L19.26 -5.52734L10.779 2.95366L7.6524 6.08025L-3.9552 17.6878L-0.828611 20.8144L10.779 9.20684L19.26 17.6878L22.3866 20.8144L30.8676 29.2954L22.3866 37.7764L19.26 40.903L10.779 49.384L7.6524 52.5106L-0.828611 60.9916L-3.9552 64.1182L-0.828611 67.2448L7.6524 75.7258L-3.9552 87.3334L-0.828611 90.46L10.779 78.8524L19.26 87.3334L10.779 95.8144L7.6524 98.941L10.779 102.068L19.26 110.549L10.779 119.03L-0.828611 107.422L-3.9552 110.549L7.6524 122.156L10.779 125.283L19.26 133.764L10.779 142.245L7.6524 145.371L-3.9552 156.979L-0.828611 160.106L10.779 148.498L13.9058 145.371L22.3866 136.89L25.5134 133.764L33.9942 125.283L42.4752 133.764L30.8676 145.371L33.9942 148.498L45.6018 136.89L48.7286 133.764L45.6018 130.637L37.121 122.156L45.6018 113.675L54.0828 122.156L57.2094 125.283L60.3362 122.156L68.817 113.675L71.9438 110.549L80.4246 102.068L88.9056 110.549L80.4246 119.03L77.298 122.156L68.817 130.637L65.6904 133.764L57.2094 142.245L54.0828 145.371L45.6018 153.852L42.4752 156.979L33.9942 165.46L22.3866 153.852L19.26 156.979L30.8676 168.587L19.26 180.194L22.3866 183.321L33.9942 171.713L37.121 168.587L45.6018 160.106L54.0828 168.587L45.6018 177.068L42.4752 180.194L33.9942 188.675L30.8676 191.802L22.3866 200.283L13.9058 191.802L10.779 188.675L7.6524 191.802L-0.828611 200.283L-3.9552 203.409L-0.828611 206.536L7.6524 215.017L-3.9552 226.625L-0.828611 229.751L10.779 218.144L22.3866 229.751L25.5134 226.625L13.9058 215.017L10.779 211.89ZM2.29825 64.1182L10.779 55.6372L19.26 64.1182L10.779 72.5992L2.29825 64.1182ZM103.64 95.8144L95.159 87.3334L103.64 78.8524L112.121 87.3334L103.64 95.8144ZM150.07 32.422L158.551 40.903L150.07 49.384L141.589 40.903L150.07 32.422ZM13.9058 98.941L22.3866 90.46L30.8676 98.941L22.3866 107.422L13.9058 98.941ZM33.9942 119.03L30.8676 122.156L22.3866 130.637L13.9058 122.156L22.3866 113.675L25.5134 110.549L33.9942 102.068L42.4752 110.549L33.9942 119.03ZM77.298 98.941L68.817 107.422L65.6904 110.549L57.2094 119.03L48.7286 110.549L45.6018 107.422L37.121 98.941L33.9942 95.8144L25.5134 87.3334L33.9942 78.8524L42.4752 87.3334L45.6018 90.46L48.7286 87.3334L57.2094 78.8524L65.6904 87.3334L54.0828 98.941L57.2094 102.068L68.817 90.46L71.9438 87.3334L68.817 84.2068L60.3362 75.7258L68.817 67.2448L80.4246 78.8524L83.5514 75.7258L71.9438 64.1182L80.4246 55.6372L83.5514 52.5106L92.0322 44.0296L95.159 40.903L103.64 32.422L112.121 40.903L115.247 44.0296L126.855 55.6372L129.982 52.5106L118.374 40.903L126.855 32.422L135.336 40.903L138.463 44.0296L146.944 52.5106L138.463 60.9916L135.336 64.1182L126.855 72.5992L123.728 75.7258L115.247 84.2068L106.767 75.7258L115.247 67.2448L118.374 64.1182L115.247 60.9916L103.64 49.384L100.513 52.5106L112.121 64.1182L103.64 72.5992L92.0322 60.9916L88.9056 64.1182L100.513 75.7258L92.0322 84.2068L88.9056 87.3334L80.4246 95.8144L77.298 98.941ZM83.5514 98.941L92.0322 90.46L100.513 98.941L92.0322 107.422L83.5514 98.941Z" fill="#E8E8E8"/>
<path d="M60.3358 215.017L71.9434 203.409L68.8165 200.283L57.2089 211.89L54.0823 215.017L42.4747 226.625L45.6013 229.751L57.2089 218.144L60.3358 215.017Z" fill="#E8E8E8"/>
<path d="M83.551 215.017L95.1586 203.409L92.0317 200.283L80.4241 211.89L77.2975 215.017L65.6899 226.625L68.8165 229.751L80.4241 218.144L83.551 215.017Z" fill="#E8E8E8"/>
<path d="M115.245 211.889L100.51 226.624L103.637 229.75L118.371 215.016L115.245 211.889Z" fill="#E8E8E8"/>
<path d="M231.323 211.89L222.842 203.409L234.449 191.802L231.323 188.675L219.715 200.283L211.234 191.802L208.108 188.675L199.627 180.194L208.108 171.713L211.234 168.586L208.108 165.46L199.627 156.979L211.234 145.371L208.108 142.245L196.5 153.852L188.019 145.371L196.5 136.89L199.627 133.764L208.108 125.283L211.234 122.156L219.715 113.675L228.196 122.156L216.588 133.764L219.715 136.89L231.323 125.283L234.449 122.156L246.057 110.548L242.93 107.422L231.323 119.029L222.842 110.548L231.323 102.067L234.449 98.9409L246.057 87.3333L242.93 84.2067L231.323 95.8143L222.842 87.3333L234.449 75.7257L231.323 72.5991L219.715 84.2067L216.588 87.3333L219.715 90.4599L228.196 98.9409L219.715 107.422L216.588 110.548L208.108 119.029L204.981 122.156L196.5 130.637L188.019 122.156L184.892 119.029L176.411 110.548L173.285 107.422L170.158 110.548L158.55 122.156L161.677 125.283L173.285 113.675L181.766 122.156L170.158 133.764L173.285 136.89L184.892 125.283L193.373 133.764L184.892 142.245L181.766 145.371L170.158 156.979L161.677 165.46L153.197 156.979L164.804 145.371L161.677 142.245L150.07 153.852L141.589 145.371L153.197 133.764L150.07 130.637L138.462 142.245L129.981 133.764L126.855 130.637L118.374 122.156L126.855 113.675L135.336 122.156L138.462 125.283L141.589 122.156L150.07 113.675L164.804 98.9409L176.411 87.3333L173.285 84.2067L161.678 95.8143L153.197 87.3333L164.804 75.7257L176.411 64.1181L173.285 60.9915L158.551 75.7257L150.07 84.2067L146.943 87.3333L150.07 90.4599L158.551 98.9409L150.07 107.422L146.943 110.548L138.462 119.029L129.981 110.548L138.462 102.067L141.589 98.9409L138.462 95.8143L129.981 87.3333L138.462 78.8523L141.589 75.7257L150.07 67.2447L164.804 52.5105L173.285 44.0298L181.766 52.5105L184.892 55.6371L188.019 52.5105L199.627 40.9029L196.5 37.7763L184.892 49.3839L176.411 40.9029L184.892 32.4219L188.019 29.2953L196.5 20.8143L199.627 17.6877L208.108 9.20672L211.234 6.08013L219.715 -2.40088L228.196 6.08013L231.323 9.20672L234.449 6.08013L246.057 -5.52746L242.93 -8.65405L231.323 2.95354L222.842 -5.52746L219.715 -8.65405L216.588 -5.52746L208.108 2.95354L204.981 6.08013L196.5 14.5611L193.373 17.6877L184.892 26.1687L181.766 29.2953L173.285 37.7763L170.158 40.9029L158.55 52.5105L150.07 60.9915L146.943 64.1181L138.462 72.5991L135.336 75.7257L126.855 84.2067L123.728 87.3333L112.12 98.9409L115.247 102.067L126.855 90.4599L135.336 98.9409L126.855 107.422L123.728 110.548L115.247 119.029L112.12 122.156L103.639 130.637L95.1586 122.156L106.766 110.548L103.639 107.422L92.0317 119.029L88.9051 122.156L80.4241 130.637L77.2975 133.764L68.8165 142.245L65.69 145.371L68.8165 148.498L77.2975 156.979L80.4241 160.105L88.9051 168.586L92.0317 171.713L100.513 180.194L92.0317 188.675L83.551 180.194L80.4241 177.067L77.2975 180.194L68.8165 188.675L65.69 191.802L57.2089 200.283L54.0824 203.409L45.6014 211.89L42.4748 215.017L33.9938 223.498L25.513 215.017L33.9938 206.536L37.1206 203.409L45.6014 194.928L48.7282 191.802L57.2089 183.321L60.3358 180.194L68.8165 171.713L71.9434 168.586L68.8165 165.46L57.2089 153.852L54.0824 156.979L65.69 168.586L57.2089 177.067L54.0824 180.194L45.6014 188.675L42.4748 191.802L33.9938 200.283L30.8672 203.409L22.3862 211.89L10.7786 200.283L7.65198 203.409L19.2596 215.017L22.3862 218.143L30.8672 226.624L33.9938 229.751L37.1206 226.624L45.6014 218.143L48.7282 215.017L57.2089 206.536L60.3358 203.409L68.8165 194.928L77.2975 203.409L68.8165 211.89L65.69 215.017L54.0824 226.624L57.2089 229.751L68.8165 218.143L71.9434 215.017L80.4241 206.536L83.551 203.409L92.0317 194.928L100.513 203.409L92.0317 211.89L88.9051 215.017L77.2975 226.624L80.4241 229.751L92.0317 218.143L95.1586 215.017L103.639 206.536L106.766 203.409L103.639 200.283L95.1586 191.802L103.639 183.321L112.12 191.802L115.247 194.928L123.728 203.409L126.855 206.536L129.981 203.409L138.462 194.928L146.943 203.409L138.462 211.89L135.336 215.017L138.462 218.143L146.943 226.624L150.07 229.751L164.804 215.017L176.411 203.409L184.892 194.928L188.019 191.802L184.892 188.675L176.411 180.194L173.285 177.067L170.158 180.194L161.677 188.675L153.197 180.194L164.804 168.586L176.411 156.979L184.892 148.498L193.373 156.979L181.766 168.586L184.892 171.713L196.5 160.105L204.981 168.586L196.5 177.067L193.373 180.194L196.5 183.321L204.981 191.802L208.108 194.928L216.588 203.409L219.715 206.536L228.196 215.017L219.715 223.498L211.234 215.017L208.108 211.89L196.5 200.283L193.373 203.409L204.981 215.017L196.5 223.498L188.019 215.017L184.892 211.89L181.766 215.017L170.158 226.624L173.285 229.751L184.892 218.143L193.373 226.624L196.5 229.751L199.627 226.624L208.108 218.143L216.588 226.624L219.715 229.751L222.842 226.624L231.323 218.143L242.93 229.751L246.057 226.624L234.449 215.017L231.323 211.89ZM80.4241 200.283L71.9434 191.802L80.4241 183.321L88.9051 191.802L80.4241 200.283ZM135.336 145.371L126.855 153.852L118.374 145.371L126.855 136.89L135.336 145.371ZM92.0317 125.283L100.513 133.764L103.639 136.89L106.766 133.764L115.247 125.283L123.728 133.764L115.247 142.245L112.12 145.371L103.639 153.852L95.1586 145.371L92.0317 142.245L83.551 133.764L92.0317 125.283ZM71.9434 145.371L80.4241 136.89L88.9051 145.371L80.4241 153.852L71.9434 145.371ZM95.1586 168.586L92.0317 165.46L83.551 156.979L92.0317 148.498L100.513 156.979L103.639 160.105L106.766 156.979L115.247 148.498L123.728 156.979L115.247 165.46L112.12 168.586L103.639 177.067L95.1586 168.586ZM106.766 180.194L115.247 171.713L118.374 168.586L126.855 160.105L129.981 156.979L138.462 148.498L146.943 156.979L138.462 165.46L135.336 168.586L126.855 177.067L123.728 180.194L115.247 188.675L106.766 180.194ZM126.855 200.283L118.374 191.802L126.855 183.321L135.336 191.802L126.855 200.283ZM150.07 223.498L141.589 215.017L150.07 206.536L158.551 215.017L150.07 223.498ZM158.551 191.802L161.677 194.928L164.804 191.802L173.285 183.321L181.766 191.802L170.158 203.409L161.677 211.89L150.07 200.282L141.589 191.802L150.07 183.321L158.551 191.802ZM150.07 177.067L146.943 180.194L138.462 188.675L129.981 180.194L138.462 171.713L141.589 168.586L150.07 160.105L158.551 168.586L150.07 177.067Z" fill="#E8E8E8"/>
<path d="M335.791 211.89L332.664 215.017L321.057 226.624L324.183 229.751L335.791 218.143L347.399 229.751L350.525 226.624L338.918 215.017L335.791 211.89Z" fill="#E8E8E8"/>
</g>
</g>
<defs>
<clipPath id="clip0_38_517">
<rect width="393" height="221.097" fill="white"/>
</clipPath>
</defs>
</svg>
